<?xml version="1.0" encoding="utf-8" ?>
<svg baseProfile="full" height="153.141970965" version="1.1" width="1031.13248878" xmlns="http://www.w3.org/2000/svg" xmlns:ev="http://www.w3.org/2001/xml-events" xmlns:xlink="http://www.w3.org/1999/xlink"><defs /><rect fill="white" height="153.141970965" width="1031.13248878" x="0" y="0" /><path d="M26.5421944618,71.0487641122 m-0.776560497284,-2.3857383728 l-0.765633964539,-0.650864887238 0.368264198303,-0.87770280838 l-0.0746082782745,-0.373958063126 0.120582532883,0.615557098389 l0.876686859131,2.11493492126 1.48510923386,3.56769142151 l0.724594211578,2.67421112061 0.693464374542,4.70633125305 l1.28497838974,5.54400062561 0.765503120422,4.77653579712 l0.819190979004,3.46567687988 0.560926532745,1.97735023499 l1.22632484436,1.5541592598 0.468015384674,0.614469766617 l0.943002891541,-0.0379443496466 2.05492095947,-0.54785823822 m39.7110046387,-10.758177948 l-0.63738451004,-0.486501741409 -0.303833818436,0.0885391533375 l-0.275380635262,0.369296312332 0.281730055809,1.64985980988 l-0.480609750748,1.75675735474 -0.459452676773,2.50293331146 l-0.364242053032,2.1740070343 0.325382709503,1.95559654236 l0.563652801514,1.34705410004 0.992844390869,0.767612409592 l1.93588809967,1.38287267685 2.43012962341,0.568982887268 l3.29688911438,0.50529999733 4.07349815369,0.111114692688 l4.73477706909,0.965891742706 4.10137786865,0.67113776207 m13.3716522217,-2.32943344116 l-0.910845947266,1.3173746109 -1.95494918823,1.08927345276 l-2.03561134338,0.832727527618 -1.64619903564,0.0996829509735 l-1.54673871994,-0.992435264587 -0.778245830536,-1.43850946426 l0.585181045532,-1.76198692322 2.92014770508,-1.87328510284 l2.59345626831,-1.86826782227 3.83719062805,0.497756528854 l2.40962238312,0.30387506485 1.0523018837,-0.0322675973177 l0.624936771393,0.193782067299 -0.682987499237,0.137578892708 l-1.58704376221,0.470512199402 -2.4611530304,0.818332862854 l-2.65040588379,0.829761314392 m-10.3940391541,15.2831161499 l-0.662060165405,13.2064910889 -2.23048858643,-11.55414505 l-0.605578184128,-3.05335731506 0.701611804962,-1.24239768982 l0.419063234329,-1.22406396866 0.666958141327,-0.311422610283 l0.959861183167,0.651188468933 0.972576999664,1.58237438202 l1.42673921585,0.7430103302 2.83786659241,0.504103469849 l3.36288948059,-0.0498333513737 m35.6413421631,-16.3946716309 l-0.15219014883,-0.167100691795 0.0182481244206,-1.61154937744 l-0.137858486176,-2.29537982941 0.120672154427,-2.47884159088 l-0.347513079643,-1.91590709686 -0.279279327393,-1.99467468262 l0.764145278931,-1.0511013031 -0.534632635117,-0.341854214668 l-0.823622512817,-0.924530220032 -0.380514335632,-0.811687278748 l-0.264817905426,-0.670423412323 -0.222841930389,0.0147004812956 l-1.22964715958,-0.0868302464485 m-10.4927505493,2.36981964111 l-0.513520431519,-0.243596100807 0.414799070358,-0.304491996765 l0.360656142235,-0.127741801739 1.18647203445,0.272941088676 l1.0914563179,0.630540084839 1.85703487396,3.03713874817 l1.00362215042,2.27169017792 0.898302936554,2.32212791443 m-10.1179847717,3.84608879089 l-0.594101905823,1.98400840759 0.2604855299,0.895269775391 l0.384447050095,0.649278211594 0.871353721619,0.941952896118 l0.244752264023,-0.520095062256 0.739257097244,-0.839523410797 l1.28377895355,-1.13790359497 1.28508625031,-2.93993339539 l2.40282096863,-2.18676071167 1.97319087982,-2.24310112 l0.773983430862,-1.69717006683 1.11535310745,0.0383256912231 l0.273403930664,1.08088130951 0.446387672424,1.42909049988 m-17.5574874878,-2.0181016922 l-0.834379291534,3.70353355408 -1.42778911591,1.81096839905 l-0.901461791992,1.3931634903 -0.600097131729,0.0905902683735 l-0.101782643795,-0.226427769661 1.78592376709,0.860791778564 l1.66277580261,0.382833385468 2.1317237854,0.4891310215 l2.87658576965,-0.0603584289551 3.33355255127,-0.876713943481 l3.89830818176,-0.652803707123 3.34955596924,-1.32039489746 l2.59588222504,-2.45267124176 3.11319389343,-1.48997344971 l1.80400619507,-1.56996212006 1.61280136108,-1.35117330551 l0.100021016598,-1.58814516068 -0.164082419872,0.564220809937 l-0.152683675289,1.40493144989 -1.62078552246,1.06340732574 l-0.778847932816,2.23960266113 -0.534879016876,2.00600662231 l-0.380976867676,1.02158679962 0.612323856354,1.0190568924 l0.0206960141659,-0.260598444939 0.680467176437,-0.893070602417 l1.1075917244,-0.952694988251 1.17437562943,-0.636187744141 l1.7300617218,0.0812404632568 1.18641452789,0.52289018631 l1.06410865784,0.772811794281 1.58684167862,1.72049007416 l0.902038574219,0.671951341629 2.28679695129,1.61293678284 l2.03135490417,0.189976906776 3.37872962952,0.869560050964 l2.37616882324,-0.829732322693 2.50815029144,-1.1526052475 l18.2001571655,4.46974716187 1.22319545746,-1.22006645203 l1.97360458374,-2.32633094788 1.78550052643,-2.60834598541 l1.1118645668,-2.79052696228 0.41207985878,-2.92037086487 l-0.491485786438,-2.29562530518 -1.27443799973,-2.41140155792 l-1.94970779419,-1.07912244797 -3.08446273804,-0.204232740402 l-3.31711349487,0.466572713852 -2.44819984436,2.04241523743 l-2.34845428467,1.98742923737 -0.584598255157,4.13671112061 l0.416427898407,4.40789489746 0.992680644989,4.90207977295 l2.12013282776,4.72561721802 2.62978076935,5.94565811157 l2.0046546936,4.82544136047 1.34767837524,4.00007591248 l-1.06141586304,1.40409069061 -2.07169342041,0.184332358837 l-2.38219032288,-0.136380982399 -3.30511398315,0.790866279602 l-3.79607925415,-0.185821533203 -3.08647232056,-0.0790834963322 l-2.5735874176,-0.0610893368721 -1.37842998505,-0.278101539612 l-1.27924461365,-0.90127620697 -0.421305799484,-0.540055704117 l0.388924098015,-0.935164546967 m0.873113155365,-1.90306148529 l0.135885071754,0.452489376068 0.30927503109,-1.4660369873 m38.2977539063,-22.8986602783 l0.0453437298536,-0.30745985508 0.164967131615,-0.750532150269 l1.26440420151,0.262466311455 1.12546348572,-0.0623835265636 l1.51721801758,1.21580076218 m10.1614837646,-29.6633422852 l-0.560002994537,1.26793470383 -1.23623638153,2.15142326355 l-1.60862846375,2.5775352478 -0.982542705536,3.70168609619 l-1.28932247162,4.57884521484 9.54685592651,-0.250056624413 l2.5265581131,3.1686756134 0.833744907379,3.46776733398 l0.280528640747,3.8689250946 -0.252342820168,3.50660705566 l-0.45990486145,1.32298612595 0.313045716286,1.04346561432 l-0.412303829193,-1.0065372467 -0.403809976578,-0.575222969055 l-0.907354450226,-2.09923915863 -0.808162212372,-1.98397731781 l-0.842884254456,-1.07755422592 -0.477420043945,-0.0511671841145 l-0.340873479843,-0.014911660552 0.161611032486,0.400282716751 l0.504471540451,0.46879825592 1.5757809639,2.08783321381 l1.64792842865,1.3985537529 2.55733261108,1.32719554901 l2.34689350128,-0.0945196628571 2.11624355316,-0.624548912048 l1.32093248367,-0.565637350082 2.81937675476,-0.909339141846 l2.47582530975,-1.556757164 2.39083976746,-1.50086870193 l1.58196086884,-1.71008968353 1.09932117462,-0.892330646515 l0.668436765671,-0.27345252037 -0.828114509583,-0.0819333195686 l-0.785408973694,1.5307882309 -1.23924436569,2.11488227844 l-1.70122451782,2.29072666168 -1.16648406982,3.31841239929 l0.915057086945,5.05297546387 1.78906364441,4.13094329834 l1.65974674225,2.19848937988 1.99501914978,1.1821472168 l1.97094764709,-0.217439484596 1.10348529816,-0.630818557739 l0.387080001831,-2.53671646118 0.290860414505,-3.71195907593 l-0.639536857605,-4.00886688232 -0.564426183701,-4.67561798096 l-0.496818065643,-2.88749732971 -0.959708309174,-2.13426189423 l-0.428743124008,-0.255761885643 0.161885559559,1.74437103271 l0.676464605331,3.17335910797 0.871667480469,2.77909622192 l1.50328102112,2.35099811554 1.98309669495,1.54948806763 l2.62010936737,0.040623369813 1.82986907959,-1.21023187637 l1.51240100861,-1.97229976654 0.503317737579,-3.15967388153 l0.421776294708,-3.68943252563 0.180227339268,-3.66715698242 l-0.697355365753,-3.14107398987 -1.59199752808,-0.799419355392 l-0.606045150757,0.665542125702 -0.617025375366,1.17360458374 l-0.399577379227,2.66082420349 -0.683629131317,2.51011123657 l0.412706947327,2.03416175842 1.98418273926,1.37856025696 l3.08409137726,0.473971652985 2.7268863678,-0.164793431759 l0.885997390747,-0.913919067383 0.985328292847,-0.981508255005 l0.167491817474,-0.685466766357 -0.0365559637547,-0.116893136501 l-0.557999849319,-0.0528872489929 -0.559888648987,0.525506591797 l0.295769572258,1.28558425903 -0.608217668533,0.209043598175 l0.0208742335439,0.704740047455 -0.672654867172,0.268852043152 l-0.351937794685,0.0685110807419 -0.284902453423,0.460789728165 l-0.652348518372,-0.0507781028748 -0.389708542824,-0.304359579086 l-1.12400455475,-0.747080612183 -1.01626682281,-0.480674934387 l-1.61284790039,0.751817703247 0.140394103527,2.67846889496 l-0.159868431091,2.33313560486 0.567385911942,2.43112392426 l1.73446121216,3.64963989258 1.28564605713,2.42900390625 m8.11320343018,-14.2993026733 l-0.88973493576,1.22494506836 -0.906623268127,0.658419561386 l0.272753763199,1.42708740234 1.04080905914,0.727761983871 l1.16784229279,-0.592105436325 2.74962310791,-0.400202941895 l2.85178451538,-1.11698093414 3.04554920197,-0.443007802963 l1.07675542831,-1.36280422211 0.78970079422,-0.376331830025 l0.845524692535,-0.307708930969 0.906277561188,0.334297204018 l1.72191905975,2.66329536438 0.862839412689,2.67280960083 l0.504565191269,1.86768321991 0.975529766083,1.39774713516 l0.131849074364,0.110105848312 0.313688993454,0.444248390198 l0.771543741226,-0.708557796478 m-22.6391220093,10.3925018311 l0.150650441647,-4.7853729248 -0.135678005219,-1.77035179138 m-3.27982406616,-14.946812439 l0.0442366540432,-0.537448835373 1.64469738007,0.255382061005 l1.87600059509,-0.801375484467 1.46119480133,-1.04510974884 l1.80254383087,-0.376058840752 1.47668409348,-0.169572901726 l1.19870462418,-0.28010392189 0.594387292862,-0.257282376289 m15.3733505249,16.9212158203 l-0.160222506523,0.303318691254 0.0979628682137,-0.0235275536776 l0.163583028316,-1.35026550293 0.110054862499,-1.79977416992 l-0.403176212311,-3.23151550293 -0.0182873442769,-3.57427825928 l0.28140976429,-3.02338809967 0.57847070694,-3.39376792908 l0.925223064423,-3.5477645874 1.56506767273,-2.97977542877 l1.31201915741,-2.16269721985 1.69259414673,-0.630388498306 l1.28250017166,0.0490351200104 0.321844625473,0.724324989319 l0.511352777481,2.55118198395 -0.671205997467,3.69430084229 l-0.897523784637,4.46232299805 -0.684267807007,4.84136924744 l0.251127624512,3.33985748291 0.542559576035,0.751696538925 l1.33416061401,-1.05982055664 1.37138757706,-2.56836471558 l1.13264198303,-2.80925197601 1.3773267746,-3.9162273407 l0.266552209854,-2.71588859558 1.00453109741,-0.730524349213 l0.819598579407,0.313003110886 0.149158537388,0.031576693058 l5.18736604135e-05,1.11955528259 -0.207480287552,1.24420051575 l0.0190174907446,1.93941764832 0.851391220093,1.97388916016 l0.542851066589,2.20815467834 0.865051078796,1.03877182007 l1.49931821823,0.868066883087 2.63770828247,-0.427733755112 l2.18269004822,-2.42118721008 1.97435531616,-2.40596656799 l0.964080619812,-2.96975364685 -0.183111786842,-1.53652133942 l-0.225600910187,-1.41428432465 -0.583977222443,-0.261307740211 l-0.214782857895,-0.0302048891783 -0.449203538895,0.421550035477 l0.0531485080719,2.22742614746 0.0710040986538,2.40328330994 l0.499209213257,2.72345848083 1.23175668716,2.56516151428 l0.633905220032,2.30747509003 1.0690366745,1.01843032837 l1.22147798538,0.492738676071 1.05555801392,-0.0297842115164 l1.14868974686,0.0338092267513 0.883907699585,-0.178864789009 l0.43638010025,-0.615179920197 -0.450041484833,-1.03941965103 l-0.417600345612,-1.11140241623 0.105360901356,-0.480247020721 l0.283658218384,-0.372801971436 0.182210314274,0.690533399582 l0.687545871735,0.192894804478 2.26881065369,2.08392734528 l0.807833099365,1.25766963959 0.688228607178,1.91370563507 l1.31073274612,2.44515590668 -0.214563179016,0.676269817352 l0.425762844086,0.552702617645 0.290793466568,-0.336641597748 m39.569241333,-14.2399765015 l-0.421147012711,-0.286477613449 -0.939957904816,1.24648456573 l-1.85539264679,1.72484550476 -1.51699075699,2.13056411743 l-1.06803750992,1.52895488739 0.211622166634,0.936492729187 l1.12264385223,0.428159427643 2.70350227356,0.50150976181 l2.84749393463,-0.116285204887 3.60719146729,-0.412294101715 l2.55999717712,0.143399345875 1.85871353149,0.519793605804 l-0.213983249664,0.537963294983 -0.726938152313,0.954082107544 l-2.26135826111,1.59252529144 -1.73140468597,2.20506248474 l-2.17156047821,0.988121795654 -1.66574668884,0.550577449799 l-1.69719142914,1.01492319107 -2.16396694183,0.159499979019 l-1.99458847046,0.0747544407845 m15.1569717407,-4.74119186401 l0.102087044716,0.0288359940052 -0.282044434547,-0.452332687378 l0.311515212059,-0.601468992233 0.273352742195,-0.755793952942 l1.06210231781,-1.16825819016 -0.220827317238,-2.69499092102 l-0.537021350861,-2.34219589233 -0.993151855469,-2.51598968506 l-1.03142747879,-1.53414554596 -0.598839521408,0.642525005341 l0.542799520493,1.76555366516 0.0161472842097,1.98736591339 l0.107368266582,1.77360725403 0.173258602619,1.18603591919 l1.35627555847,0.822947597504 0.924299907684,-0.770047950745 l1.51775932312,-1.06065597534 1.84686908722,-1.364615345 l2.02442893982,-0.764590930939 1.02487611771,-0.475806188583 l0.397701525688,1.34040584564 -0.0976715624332,1.58114509583 l0.415072202682,2.61783237457 -0.539014291763,1.05663547516 l-0.325761985779,0.17559248209 1.11174860001,0.568055725098 m3.51639137268,-11.4133560181 l1.27908363342,2.61497840881 0.284049057961,0.888237190247 l0.110119128227,-0.105675625801 1.20592880249,0.571501541138 l1.00256977081,-0.285556578636 1.04242095947,-0.475491333008 l1.62255496979,-0.201557302475 1.62001361847,0.306821489334 l0.731954860687,-0.619937705994 0.944367694855,-0.65429186821 m23.056350708,1.82727355957 l-0.136945271492,1.26466770172 -0.177466917038,1.41250267029 l-0.199779641628,0.910596179962 -0.21652173996,1.30841875076 l-0.54000377655,0.230010533333 -1.16282787323,-0.849021530151 m16.3417785645,-3.85948257446 l-0.674013185501,-0.367937064171 -1.08197011948,-0.779840660095 l-1.30205459595,-1.29022264481 -0.972332286835,-0.932452297211 l-0.671638727188,-0.0184453070164 -1.09632606506,-0.000573490932584 l-0.876731967926,0.608962774277 -0.6748046875,0.794330406189 l-0.320357370377,1.36139755249 0.000195282849018,1.84401607513 l0.638525295258,1.90537433624 0.0646740198135,0.504497814178 l1.54448547363,0.747507572174 1.56554107666,-0.0991258084774 l0.702624845505,-2.1532623291 1.73671894073,-2.28348503113 l2.28644142151,-2.98430252075 2.02019538879,-2.15910301208 l1.54214515686,-0.930327224731 1.33625402451,0.943278503418 l1.02586088181,0.932413101196 0.638477039337,1.49773674011 l1.25341749191,2.11985092163 0.559968185425,2.42420654297 l0.162781786919,1.78806209564 -0.521633434296,0.496037054062 m18.2623428345,-16.4312744141 l0.019659614563,0.614464664459 -0.552190065384,0.194931733608 l-0.950182437897,-0.263975977898 -0.523413467407,0.210373926163 l-0.439737224579,1.14164619446 -0.8972615242,0.753986787796 l0.386378884315,2.95069007874 -0.488132858276,2.33602333069 l0.584478759766,2.94974098206 0.972270202637,3.4756526947 l0.254998445511,1.27864665985 0.640362262726,0.549884414673 l0.626494789124,-0.339085912704 0.127464318275,-1.77659854889 l1.15019359589,-2.1443195343 0.150980234146,-2.39222698212 l-0.370879197121,-1.85325965881 0.195613837242,0.910702133179 l-0.712830543518,-0.400279569626 0.103625285625,1.5652557373 l-0.298344659805,2.07015762329 0.139336526394,2.51553134918 l1.66079597473,3.34769744873 2.61900043488,2.72572250366 l3.83061790466,2.74819984436 3.44569244385,1.0608464241 l3.63442764282,0.659881210327 2.83260326385,-0.393455314636 l2.07118339539,-1.11904296875 1.23765363693,-1.64616031647 l1.04037561417,-1.48388576508 m-6.65180511475,-23.2729782104 l-0.549198913574,-0.65330953598 0.823687171936,0.411429738998 l0.583278179169,0.429814529419 1.93595619202,1.53616533279 l2.07522468567,1.44391832352 1.74903526306,1.13195133209 l2.19366950989,1.35309638977 0.997431659698,0.201331996918 l0.766403150558,-0.534232807159 0.547458457947,-2.01531982422 l0.490089225769,-3.01953201294 0.886024951935,-2.97274990082 m14.3670700073,-10.5135154724 l-0.182032346725,-0.601455307007 -0.176522064209,1.6198102951 l-0.355533313751,2.73669834137 -0.181579959393,5.5910369873 l-0.116373860836,4.75626525879 0.645403385162,5.38406982422 l1.03576040268,4.34730224609 1.7501493454,4.18532905579 l1.99357624054,2.65689868927 0.945058059692,0.566713523865 l0.17592869997,-0.845854663849 -0.610763120651,-2.0837469101 l-0.349323987961,-1.32414035797 -1.21515159607,-0.471284198761 l-0.781140089035,0.466962099075 -0.94606962204,-0.266093683243 l-0.0825565218925,0.227147054672 m39.1743835449,-0.606808376312 l1.1719584465,0.851836490631 0.420031738281,-0.291532754898 l0.391681337357,-0.621328878403 -0.297204947472,-1.83915214539 l-0.0729625701904,-2.23789768219 -1.10493202209,-3.83544387817 l-0.218257594109,-2.66013374329 -0.406128311157,-2.3818529129 l-0.288169264793,-1.43855342865 0.0704872846603,-0.368710970879 l1.51068782806,1.32091159821 2.58471336365,0.665672016144 l3.6688079834,1.11300125122 4.80681991577,0.661001396179 l4.11831512451,-0.797964572906 3.44936408997,-0.799821138382 m13.2836227417,12.0616226196 l0.519277954102,0.183147931099 0.326505875587,-0.520856332779 l1.102805233,-1.42654685974 0.848418807983,-2.05891513824 l1.18601694107,-1.93279876709 2.05324020386,-1.90418777466 l1.93183021545,-2.15787143707 1.3053899765,-1.95131721497 l0.926034355164,-1.12120742798 0.157485735416,-0.768131065369 l-0.625528049469,-0.070734333992 -1.36791334152,0.102588021755 l-1.12865886688,1.08148393631 -1.53503665924,1.26511268616 l-1.45318880081,0.317954397202 -0.512577533722,0.948731136322 l0.030600464344,0.995443820953 0.468860864639,1.3927614212 l0.898124504089,2.72378749847 1.06713256836,2.98814735413 l0.895742321014,2.83671360016 0.525984668732,2.63293056488 l1.1290892601,2.35367603302 0.181462335587,0.890840339661 l0.0609814763069,0.696744680405 -0.817491436005,-0.21042175293 l-0.997991371155,-0.936008358002 0.0159312769771,-0.944062805176 l0.336515378952,-1.68553657532 1.21650266647,-1.85049972534 l1.80189208984,-1.68959217072 1.37078304291,-2.01307182312 l1.85195903778,-0.939808750153 1.63612556458,-0.440119838715 l1.05693664551,-0.343147063255 0.697316074371,0.0131610646844 l1.22078361511,0.761579465866 1.32038650513,1.00202646255 l2.55195407867,2.31422691345 1.40960264206,0.86121006012 l0.838053798676,0.0607154011726 0.297759008408,-0.719832038879 l0.0267168521881,-0.594356298447 -0.475616979599,-1.39405670166 l-0.702558517456,-1.86288528442 -1.27797117233,-2.21450080872 l-1.60775241852,-2.28465003967 -1.3514629364,-1.24488735199 l-1.15553436279,-0.544781684875 -1.10698604584,0.587499523163 l-0.42085647583,0.469709014893 0.361253786087,1.14283075333 m-4.8311088562,-1.37860870361 l-1.1221241951,1.30017700195 -0.597974967957,0.285699987411 l0.322506928444,1.1078660965 1.47051038742,2.01131591797 l2.39186058044,1.75757312775 m11.0684158325,-22.6645675659 l0.264336013794,0.427162122726 0.281216287613,0.983558368683 l0.221980428696,2.10349121094 0.158022463322,3.5112449646 l0.774390029907,5.61843948364 -0.486651134491,3.26363945007 l0.383836317062,2.51830253601 0.921839618683,1.90660667419 l0.937964057922,0.604630708694 1.18692188263,0.643241500854 l1.48127975464,0.29950504303 1.37714176178,-0.857032680511 l1.97813777924,-0.879360675812 1.40249404907,-1.6127571106 l1.93033065796,-0.82904253006 1.56040668488,-1.16120100021 l1.6585351944,-1.05434503555 0.529535293579,-1.06498632431 l-0.162264561653,-0.314959144592 -0.0269945591688,0.161765766144 l-0.639911746979,0.203386926651 -0.809927558899,-0.00373432412744 l-0.317397499084,0.903491210937 -0.150038647652,2.02510871887 l-0.391982841492,2.05366630554 -0.439026117325,1.57707681656 l-0.0842159867287,1.23636331558 -0.12406424284,0.0873089492321 l0.514028549194,0.0522887349129 0.658510923386,-0.832202625275 l0.815442371368,-0.601222324371 0.354372859001,-1.27506504059 l0.909562301636,-0.857709693909 0.491184234619,-1.32344255447 l0.611366844177,-1.07869586945 0.741940784454,-1.3338265419 l0.876877593994,-0.969340896606 1.51390781403,-0.683923816681 l1.50657615662,-0.481131029129 1.66420135498,0.143299162388 l2.17527618408,0.571120071411 0.876090431213,-0.151607084274 l1.52422103882,0.59458990097 0.77882361412,-0.349145698547 l0.854323959351,-0.92314786911 0.480257320404,-0.933581352234 m-2.95447769165,-3.23182258606 l-0.828396320343,-1.03809108734 -0.395184183121,-0.255758786201 l-0.946892356873,-0.573530292511 -0.999103927612,-0.20094807148 l-1.19039707184,1.1725479126 -0.384570264816,2.8709236145 l-0.813125514984,3.30554618835 -0.664928627014,3.08251781464 l-0.0842653214931,1.70084266663 1.79979877472,2.18705749512 l1.75384368896,0.856877994537 2.38598937988,0.772662687302 l2.45558357239,0.15148216486 1.98352737427,-0.699273967743 l0.676218128204,-1.23534698486 0.11973105669,-1.85698013306 l0.647514057159,-0.919952964783 m36.5516540527,-5.87457580566 l0.143121671677,0.25957326889 0.359653615952,-0.536137533188 l0.785286474228,-0.492739152908 0.344879174232,-0.705021762848 l0.553037405014,-0.723102760315 -0.47724313736,-1.21566848755 l0.14551076889,-0.257778358459 -0.489326906204,0.198538398743 l-1.01574192047,0.603388834 -1.48036060333,0.58308839798 l-0.867966556549,1.13750667572 -0.805880737305,0.758515453339 l-0.250033283234,0.90103521347 -0.0165913909674,0.886326026917 l0.231616282463,0.852138996124 0.881037425995,1.0157169342 l1.65300369263,1.78767471313 0.564772033691,1.43263893127 l0.390797233582,1.44411392212 0.404294204712,1.37025690079 l-0.230071878433,1.28028907776 -1.3137638092,0.286581325531 l-0.826166057587,0.0778334677219 -0.870477581024,-0.501041936874 l-0.0842823028564,-1.04248895645 0.219235777855,-1.53672933578 l0.902876186371,-2.701953125 m-1.82346668243,-20.2342681885 l1.4879565239,-1.33173856735 0.588007211685,0.442463588715 l1.51685762405,1.27997541428 0.572473478317,1.02935934067 l0.0530721485615,1.71435546875 -0.0136649444699,2.68015708923 l-0.662193870544,2.5996263504 m28.4047485352,1.99028701782 l-0.130711138248,0.0792237222195 0.036802649498,0.190655946732 l-0.28893840313,-0.206675481796 -0.264459347725,0.0914724111557 l-1.51783647537,0.383855962753 -1.60576839447,2.33352298737 l-1.70198402405,3.32886390686 -1.96921844482,2.55799331665 l-0.593917560577,2.64778804779 -0.0966186523438,0.816141319275 l1.68238506317,1.37181043625 1.6676492691,0.156213593483 l2.11613273621,-0.388037347794 0.516886520386,-1.23767738342 l0.985353851318,-1.07081069946 0.320216536522,-1.3740073204 l0.239289569855,-1.54639444351 0.585349464417,-0.86117067337 l0.944799518585,0.0331753134727 -0.107179927826,0.13300485611 l0.777527523041,1.47402915955 1.23707685471,1.24551916122 l2.28118228912,2.55236530304 1.29236927032,2.62463188171 l1.25317392349,2.58013763428 0.462390375137,2.26204910278 m37.9872314453,5.0124961853 l-0.643194913864,0.058330065012 -0.692631196976,2.08276958466 l-0.716757965088,3.33022766113 -1.95127010345,2.91437911987 l-1.34934024811,2.45295333862 -1.50153074265,1.17932815552 l-1.30507221222,-0.506132221222 -0.81536989212,-1.38085842133 l-0.694532585144,-2.24770431519 -0.270019292831,-4.24536857605 l0.622334241867,-3.48321228027 1.14902648926,-3.83421974182 l2.41160430908,-2.69085292816 2.43820476532,-2.25701828003 l3.21728363037,-1.38408966064 3.95361938477,-0.470649909973 l3.98430099487,-0.439256381989 1.62527141571,-0.283375740051 l1.51505203247,0.584632873535 m26.9424255371,-44.1621765137 l-0.0967654466629,-0.208024406433 -0.00550423152745,-0.140295732021 l-0.0292307496071,0.882579231262 -0.0898484885693,3.10930404663 l-1.1598315239,3.75682525635 -0.632116699219,4.05203704834 l-0.509052371979,3.72695121765 -0.743273305893,2.83785247803 l0.177459359169,2.24353752136 1.18579387665,1.88834571838 l3.0522819519,1.72677307129 4.19912528992,0.411307954788 l4.69613838196,-0.515206623077 3.8460395813,0.0751076638699 l2.59125919342,0.79684252739 0.49242310524,1.5295923233 l-1.04684200287,2.29877681732 -3.24151420593,2.12678375244 l-2.95705299377,0.609917879105 -1.86385803223,-0.495133829117 l-1.34333305359,-1.13875494003 0.455968332291,-1.69383602142 l2.89127502441,-1.63063335419 3.43127784729,-2.14429759979 m13.6220367432,-10.9207298279 l-1.03053455353,-0.753738451004 -1.66372642517,-0.326210546494 l-2.18406600952,0.900509548187 -1.37242736816,2.48828735352 l-0.834504032135,2.57667751312 0.0524020791054,4.06989059448 l0.558457183838,2.30811023712 2.60642662048,3.21985626221 l2.06211280823,1.67592525482 2.64979515076,0.743930625916 l1.84336490631,-0.413597631454 1.07527961731,-1.04494724274 l0.0815563201904,-2.47115516663 -0.23355345726,-2.72923698425 l-0.903995418549,-2.13699436188 -1.41765489578,-1.99529743195 l-0.52725148201,-0.0728282928467 -0.31106364727,0.915321922302 l0.897049331665,1.85326595306 1.84009723663,2.32515697479 l3.29549560547,3.5724571228 4.96483612061,2.50455970764 l5.36291313171,2.35322532654 4.93413085938,1.76813621521 l6.02135047913,1.95184192657 m36.7437866211,-14.8251708984 l0.921303749084,-0.657926559448 -0.0844477415085,1.13657779694 l-0.29028801918,1.04427127838 -0.962092971802,1.11085205078 l-1.30672779083,1.57216920853 -2.52612953186,0.414928245544 l-2.48166351318,1.1282948494 -1.57812509537,1.24445867538 l-1.94118537903,0.0476964056492 -0.856822776794,0.00383857935667 l-0.181792140007,-0.886498641968 0.891460227966,-2.46724777222 l1.58048648834,-3.71347122192 2.86445446014,-3.25170173645 l2.04719200134,-1.75450344086 0.953089809418,-0.401641225815 l0.807919311523,1.16482257843 0.529703569412,2.14396114349 l1.12374610901,3.35795936584 0.891987609863,2.14998531342 l1.05888175964,1.19361200333 0.977207946777,0.494208717346 l0.717074394226,-0.716640472412 1.59142799377,-1.60745067596 l0.825933551788,-2.26370353699 -0.825046062469,-2.07867832184 l-0.382018303871,-0.834392261505 -0.755840969086,0.541800689697 l0.180083107948,1.31872282028 0.141239023209,0.901362228394 l1.69531402588,1.5964641571 2.62047977448,1.23739700317 l2.78632049561,0.173331332207 2.44672851562,-0.705146694183 l1.98416061401,-1.67773799896 0.601452827454,-1.6843421936 l-0.474918174744,-1.35138778687 -1.12432460785,-0.725071954727 l-1.65935783386,1.41317863464 -2.65626335144,2.01747169495 l-0.905839824677,5.53991012573 m5.72690811157,-18.2569137573 l0.566217899323,-1.35824127197 0.375704050064,0.0290911376476 l0.241774630547,0.948238658905 0.459204530716,2.11677818298 l0.526306581497,2.43726940155 1.01254386902,2.48888320923 l0.634211492538,2.11340446472 1.41864595413,2.16152801514 l0.0528717696667,0.821423435211 0.774555158615,0.384024477005 l-0.242775821686,-0.906954193115 m25.8913696289,11.733391571 l0.0269580870867,-0.0830065250397 -0.296412968636,-1.34899120331 l-0.0293211251497,-2.65820999146 -0.358126163483,-4.06280212402 l-0.0624174118042,-4.39367103577 -0.559523630142,-4.30377998352 l-0.0388019025326,-3.40659408569 -0.569415330887,-2.85918121338 l-0.391124343872,-1.64489440918 -0.0518073856831,-0.0933758020401 l-0.299714946747,-0.10833543539 -0.152191305161,0.663465738297 l-0.119678008556,1.45011854172 m-15.0832763672,1.32095956802 l-1.13928871155,0.510705661774 0.499056434631,1.08054275513 l1.03392972946,1.03795804977 1.00271282196,0.265641832352 l3.84992408752,2.1979932785 3.23264160156,2.04811325073 l2.52080421448,1.34877719879 3.05144023895,1.29185972214 l3.08172874451,0.620913219452 3.28722648621,-0.6123503685 l3.70946960449,-0.790915107727 2.68645935059,-2.12978858948 l2.55143089294,-2.16724052429 m1.0715464592,2.14994659424 l0.776906013489,0.342938756943 0.846887969971,0.378304290771 l0.362373113632,-0.0387822270393 1.05524921417,0.127200293541 l1.29179182053,0.10017747879 1.01588592529,-0.762401342392 l1.29221820831,-0.916554069519 1.08220748901,-0.692372322083 l1.1019534111,0.0234476566315 0.359633541107,-0.0753896713257 l-0.376244783401,0.353729867935 -0.288615441322,1.64479179382 l-1.11959276199,1.62572078705 -0.468463945389,2.49156856537 l-0.822812271118,1.13902845383 -0.828950786591,0.527413463593 m20.4193145752,-13.4643386841 l1.39639453888,-0.417044687271 0.252711963654,-2.89473361969 l0.282476902008,-3.28977928162 -1.03529214859,-4.40993423462 l-1.99701766968,-4.85922050476 -1.67577953339,-4.28693084717 l-1.3565788269,-3.66013565063 -1.17690258026,-2.66262722015 l-1.6269317627,-1.97529163361 -0.780673265457,-0.665328454971 l-1.00463180542,-0.230826115608 -0.0541312754154,1.44751157761 l0.77879242897,3.49226799011 1.0620013237,3.91860237122 l1.141264534,4.91430206299 1.49608707428,5.36418991089 l4.25571136475,-18.2270050049 0.175216901302,0.261283540726 l0.136164426804,0.944781112671 0.0182845428586,1.27409467697 l1.07898101807,2.39976577759 m26.3038360596,4.31653175354 l-0.839430618286,0.166839468479 -0.974264717102,-0.13259139061 l0.484520864487,1.36913509369 0.892226028442,1.92518157959 l0.963925647736,1.12825975418 1.49840269089,1.89250049591 l1.24483451843,1.77211780548 0.59970574379,1.74099311829 l0.386382317543,1.69599494934 -0.136277449131,1.37431144714 l0.0200666949153,1.27708568573 -0.425961923599,0.425657510757 l-0.180111241341,0.444649171829 -0.212050104141,-0.0860090494156 l-0.592526006699,-0.857692146301 -0.138838946819,-0.533838367462 l0.0114348001778,-0.927611637115 0.149353122711,-1.11110363007 l0.443634366989,-1.71080169678 0.201055407524,-1.33678131104 l0.275968694687,-0.916405200958 0.658268499374,0.109663510323 l0.000787100940943,-0.945058917999 0.743792963028,0.688983631134 m8.70285491943,10.0964904785 l0.298361992836,-0.948785209656 0.818551540375,-1.4250629425 l0.333267235756,-2.34859371185 0.356925487518,-2.37351799011 l-0.130978679657,-2.77156925201 -0.268736362457,-2.92570209503 l-0.276898765564,-1.61890525818 -1.16757259369,-1.60437850952 l-1.31019973755,-0.943186092377 -1.67826290131,-0.196644675732 l-1.97685508728,0.148344743252 -1.86984519958,-0.105680119991 l-1.24387254715,-0.0699216187 -1.16980981827,-0.324626636505 l-0.423379993439,0.176918625832 0.850064849854,0.242938947678 l0.493395090103,-0.180425059795 0.90704832077,-0.574792575836 l1.33296222687,0.429768133163 0.710457515717,-0.0267951697111 l1.36071929932,1.054022789 1.02331724167,0.563756227493 l1.64894962311,1.66516723633 0.9029920578,0.857681369781 l1.24749002457,1.57663574219 0.0893914341927,0.524467945099 l-0.404368305206,0.311453795433 0.0100149199367,0.876296615601 l-0.303072571754,1.12281761169 -0.490030002594,0.507252454758 l0.609740781784,2.09544353485 -0.0985792160034,0.681774044037 l0.963142204285,2.14766807556 0.781982374191,1.45995330811 l1.20624818802,1.96587467194 0.642735052109,0.913648414612 l0.978730678558,1.02494316101 0.567608642578,0.913861274719 l0.319710493088,-0.134766578674 0.79150094986,0.308982396126 l0.271953630447,-1.47632417679 1.21658287048,-1.39647674561 l1.13593616486,-1.74503765106 0.710920381546,-1.67981586456 " fill="none" stroke="black" stroke-width="1" /></svg>