<?xml version="1.0" encoding="utf-8" ?>
<svg baseProfile="full" height="126.1" version="1.1" width="647.0" xmlns="http://www.w3.org/2000/svg" xmlns:ev="http://www.w3.org/2001/xml-events" xmlns:xlink="http://www.w3.org/1999/xlink"><defs /><rect fill="white" height="126.1" width="647.0" x="0" y="0" /><path d="M25,25 m10.6,17.3 l0.4,1.2 0.0,2.9 l0.0,4.2 0.5,5.4 l0.5,6.7 -0.4,14.2 l0.1,5.3 m-1.7,-11.0 l0.2,2.2 0.4,0.4 l0.8,0.6 1.3,-1.0 l1.7,-1.6 2.1,-3.2 l2.2,-4.9 2.1,-6.2 l0.9,-5.8 0.2,-4.9 l-0.3,-1.7 -0.1,-0.4 l-0.1,0.7 0.0,2.9 l-0.1,4.5 0.8,5.9 l0.7,6.2 1.0,4.6 l1.3,2.2 1.1,0.7 l1.1,-1.4 0.8,-2.0 l0.3,-1.1 0.2,0.0 l0.9,0.2 1.3,0.5 l1.6,1.5 1.8,1.5 l1.7,0.6 2.2,0.4 l2.6,-0.2 3.1,-2.0 l2.3,-2.1 1.7,-2.3 l0.9,-2.3 0.2,-2.4 l-1.0,-2.9 -1.4,-1.8 l-1.5,-0.5 -1.2,0.6 l-0.4,2.8 0.4,4.1 l1.2,4.2 2.1,4.1 l2.7,1.5 3.6,-0.1 l4.4,-2.8 4.7,-3.4 m47.9,-13.6 l0.4,0.0 0.0,0.0 l-0.1,0.0 -0.7,0.1 l-2.0,0.6 -3.0,1.1 l-2.6,1.4 -1.9,1.5 l-1.3,0.8 -0.6,0.9 l0.1,0.7 0.6,0.8 l1.3,1.1 1.6,0.7 l2.1,1.5 1.5,1.8 l0.2,2.0 -0.7,2.8 l-2.0,2.3 -2.5,1.3 l-2.4,1.0 -1.8,0.6 l-1.2,-1.2 0.2,-2.4 m23.3,-16.4 l-2.3,0.7 -2.1,1.1 l-1.7,1.4 -1.1,2.1 l-0.7,2.5 0.1,2.4 l0.9,1.6 1.2,0.2 l1.8,-1.0 2.6,-1.6 l2.6,-3.1 1.4,-3.6 l0.6,-2.8 -0.2,-1.6 l-0.2,0.0 -0.3,0.8 l0.0,2.8 0.5,2.9 l0.5,3.5 0.7,3.5 l1.0,2.7 1.1,1.1 l1.4,-0.7 1.0,-2.6 m3.0,-11.1 l0.6,-0.1 0.3,-0.1 l0.6,0.7 0.4,1.2 l0.2,1.9 0.8,3.2 l0.8,3.1 0.9,2.6 l0.8,1.1 0.6,-0.5 l1.3,-2.2 1.3,-3.6 l1.0,-3.4 0.5,-2.7 l0.6,-0.5 0.9,1.0 m6.3,1.4 l0.2,0.4 0.2,0.4 l0.0,0.0 0.0,0.0 l-0.2,0.0 -0.1,0.8 l-0.3,2.5 0.1,3.4 l0.2,3.6 0.3,4.4 l0.0,3.8 0.1,2.0 m-3.0,-29.7 l0.5,0.2 0.0,-0.4 l0.3,0.0 0.4,-0.5 m8.7,22.1 l0.3,-0.1 0.6,-0.1 l0.9,-0.7 1.0,-1.1 l1.4,-1.3 1.4,-1.6 l1.4,-0.3 1.2,0.4 l1.2,2.2 0.1,2.9 l-0.8,3.6 -1.7,3.3 l-2.3,1.5 -1.7,0.4 l-1.2,-1.3 -0.4,-2.4 m13.5,-8.9 l0.6,1.9 0.3,2.0 l0.2,2.9 0.3,3.3 l0.0,2.1 0.6,1.0 l0.6,-0.5 1.3,-2.1 m5.6,-6.5 l0.7,0.6 0.5,2.0 l0.5,2.3 0.7,1.4 l1.1,0.5 1.1,-1.2 l1.7,-1.4 1.6,-1.8 l1.9,-1.6 1.1,-0.4 l0.7,1.0 0.6,1.9 l0.7,2.3 0.6,1.5 l-0.2,-0.3 -0.6,-0.7 l-0.7,-1.4 -0.8,-3.2 l-0.5,-4.0 0.1,-3.9 l0.9,-3.8 1.8,-2.5 l2.7,-1.5 m28.6,12.1 l-0.1,0.9 -0.1,0.2 l-0.5,-0.7 0.0,-2.3 l0.5,-3.8 0.5,-3.8 l1.4,-3.4 1.7,-2.2 l1.9,-0.2 1.8,2.2 l1.3,4.8 0.2,5.8 l-1.1,5.5 -2.2,3.3 l-1.9,1.4 -1.8,0.0 l-2.2,-1.2 -1.2,-2.0 l-0.8,-2.8 0.3,-2.8 m3.8,-1.0 l3.0,0.3 3.0,0.2 l3.3,-0.7 2.9,-2.9 l2.6,-5.6 1.4,-7.8 l0.6,-8.2 -0.7,-6.2 l-1.3,-3.4 -1.0,-0.9 l-1.0,1.6 -0.6,4.2 l0.0,6.0 0.2,6.8 l-0.3,7.0 -0.1,6.1 l-0.3,4.7 0.1,1.7 l0.5,0.7 m-1.4,-2.9 l-0.4,-0.3 0.1,0.0 l0.1,-0.1 0.8,-0.3 l1.9,-0.7 3.0,-0.7 l3.0,-0.7 m24.0,2.6 l0.3,-1.1 0.5,-2.6 l0.8,-3.9 0.3,-5.1 m13.3,-15.5 l0.8,1.5 -1.2,0.4 l-3.1,1.8 -3.4,1.1 l-3.3,0.4 -2.9,0.5 l-1.6,0.6 0.5,1.2 m4.2,9.2 l-0.4,2.3 -1.7,0.5 l-1.6,1.2 -1.8,-0.3 m8.1,8.6 l1.0,1.6 0.3,-0.1 l0.4,-0.8 0.2,-2.4 l0.0,-3.4 0.4,-3.7 l0.1,-3.5 0.7,-1.0 l1.0,0.3 1.6,0.8 l1.7,1.2 2.2,0.9 l2.3,0.3 2.1,-0.6 l2.3,-0.7 1.8,-0.8 l0.7,-0.6 0.0,0.0 l-0.1,0.6 -2.0,1.5 l-1.0,2.3 -1.1,1.8 l-0.5,1.8 -0.1,0.6 l0.3,0.3 0.4,-0.4 l1.2,-1.8 2.0,-2.5 l1.1,-2.3 0.0,-0.5 l0.3,0.3 0.5,1.1 l0.0,2.0 0.2,2.4 l0.5,2.6 0.4,1.7 l0.7,0.5 1.1,-1.4 l1.8,-2.4 1.5,-3.0 l0.9,-2.4 0.1,-0.5 l0.5,0.6 0.4,1.8 l0.1,1.8 0.7,2.1 l0.9,1.9 0.5,0.0 l1.1,-1.4 1.8,-2.3 l1.5,-2.8 1.3,-2.2 l1.3,0.0 0.8,1.0 l0.4,2.2 0.0,3.1 m9.5,-4.3 l0.8,0.5 0.4,0.2 l0.1,-0.1 0.1,-0.7 l-0.1,-0.9 -1.1,-0.7 l-1.9,0.0 -2.0,0.8 l-1.2,1.4 -0.2,1.9 l0.2,1.8 1.1,1.6 l2.1,1.5 2.5,1.0 l2.4,-0.4 3.4,-0.9 l3.4,-2.4 2.0,-2.7 l1.0,-2.0 0.2,-1.4 l0.2,-0.1 -0.3,0.3 l-0.6,1.1 -0.5,0.9 l-0.8,0.7 -0.5,1.1 l-0.7,1.1 -0.2,1.8 l0.0,1.5 0.9,1.4 l0.6,0.6 1.2,0.5 l1.7,0.6 2.6,1.0 l1.7,0.1 2.0,0.3 l1.1,0.2 0.5,0.0 l0.5,0.1 -0.3,-0.3 l0.2,0.4 0.0,0.0 l0.4,0.2 0.7,-0.2 m8.8,3.5 l0.5,2.2 -0.1,0.1 l0.1,-0.1 -0.3,-0.3 m23.8,-29.9 l0.0,0.0 0.2,0.4 l-0.6,1.7 -0.8,3.3 l0.2,3.8 -0.2,4.4 l-0.6,4.6 -0.6,4.6 m-0.7,-26.6 l1.8,-0.2 2.0,0.2 l1.8,0.5 1.9,0.8 l1.6,1.2 0.6,1.8 l-1.1,3.0 -2.5,3.3 m-4.4,5.3 l-0.1,0.1 0.4,0.1 l1.0,0.1 1.3,0.3 l2.2,0.6 2.2,1.3 l1.6,2.3 -0.7,3.0 l-1.7,3.4 -1.9,3.3 l-2.3,1.7 -1.2,0.6 l-0.6,-1.0 0.0,-2.4 l1.4,-3.0 m10.5,-7.0 m0.9,6.0 l0.9,0.8 1.0,-0.4 l1.7,-1.3 1.4,-1.9 l2.4,-2.2 1.6,-1.7 l0.4,0.2 0.1,1.7 l-0.1,3.6 -0.2,3.7 l-0.1,3.7 0.2,3.2 l1.1,0.6 2.0,-2.7 l2.8,-5.9 m2.9,-28.5 l-0.1,0.1 0.1,1.2 l-0.5,3.7 -1.1,5.1 l-0.2,5.7 -0.1,5.6 l-0.1,4.9 0.1,2.8 l0.0,0.7 -0.4,-0.2 l-0.8,-0.9 -0.1,-1.0 l-0.5,-2.0 0.6,-1.3 l0.6,-1.1 2.0,-1.2 l2.4,-1.4 3.7,-1.9 l4.5,-4.6 m30.2,-18.0 l0.7,1.7 -0.1,2.9 l-0.3,4.4 -0.6,4.6 l-0.5,5.4 -0.5,6.6 l-1.4,6.1 -0.8,6.1 l-0.9,4.1 0.2,1.7 m-1.0,-13.3 l0.9,0.8 1.2,0.5 l1.4,0.2 1.6,-0.1 l1.7,-0.8 1.9,-2.5 l2.3,-4.2 2.6,-6.0 l1.4,-7.2 0.6,-6.4 l-0.3,-4.4 -1.0,-1.4 l-0.2,1.1 -0.5,3.4 l0.2,5.9 0.4,6.8 l0.3,7.6 0.3,6.8 l1.0,4.5 0.6,1.9 l1.4,0.2 1.9,-1.7 l1.6,-2.2 1.5,-0.7 l0.8,0.3 1.6,2.0 l1.5,2.6 1.1,3.1 l1.2,1.8 1.0,0.5 l1.1,-1.3 1.4,-3.1 l0.9,-3.2 0.9,-1.9 l0.6,-0.2 1.0,1.4 l1.1,3.8 1.0,4.7 l0.4,4.0 0.7,3.0 l0.3,0.4 1.2,-0.9 l1.3,-3.7 1.1,-4.8 m-2.9,-22.5 l0.5,0.0 0.2,-0.2 l-0.1,0.2 m11.1,14.5 l0.6,2.0 -0.6,2.4 l-1.5,2.5 -1.6,1.5 l-1.5,0.6 -1.2,0.4 l-0.2,0.2 0.2,0.3 l0.7,0.5 1.2,1.1 l1.4,0.8 2.0,1.2 l1.5,1.5 0.4,1.5 l-1.2,1.6 -2.0,1.3 l-2.7,0.9 -2.2,0.7 l-1.1,-0.5 0.5,-1.2 m40.6,-44.7 l0.4,1.5 0.0,3.1 l-0.1,3.9 -0.4,3.7 l0.2,4.1 -0.1,4.5 l0.4,5.2 0.1,6.4 l-0.1,7.1 -0.2,6.4 l-0.7,4.6 -1.2,2.4 l-1.5,-0.1 -2.1,-0.5 l-2.3,-1.5 -1.0,-2.8 m18.2,-15.7 l0.2,-0.1 0.3,-0.5 l0.6,-1.6 0.5,-2.3 l0.9,-2.1 1.5,-2.3 l2.0,-0.9 1.8,0.0 l1.8,2.5 0.7,4.1 l-0.2,5.5 -0.9,5.0 l-1.3,4.1 -1.9,1.3 l-1.9,-2.2 -1.8,-3.7 m23.5,-15.2 l-0.5,-0.6 -1.2,-0.4 l-1.7,0.5 -2.2,1.3 l-2.5,1.7 -1.3,2.2 l-1.0,2.2 -0.2,1.8 l0.5,0.7 1.2,-0.4 l1.8,-1.3 2.8,-3.0 l2.1,-4.0 0.8,-2.8 l0.0,-0.8 0.0,0.6 l0.2,3.0 0.0,3.7 l0.3,3.9 0.4,3.1 l1.0,1.4 1.2,-0.4 l1.7,-2.6 1.7,-3.6 l1.4,-3.7 0.8,-2.0 l0.1,-0.2 0.6,1.4 l0.1,2.8 1.0,3.0 l0.6,3.5 0.7,3.5 l1.2,1.7 1.2,-0.9 l2.1,-3.4 1.7,-4.4 l1.5,-4.1 1.1,-3.3 l0.6,-1.2 0.5,0.1 l0.9,0.8 1.3,1.7 l0.9,2.6 0.9,3.7 l0.8,3.4 1.2,1.2 l1.2,-1.5 2.1,-5.7 " fill="none" stroke="black" stroke-width="1" /></svg>