<?xml version="1.0" encoding="utf-8" ?>
<svg baseProfile="full" height="784.479576498" version="1.1" width="856.209440854" xmlns="http://www.w3.org/2000/svg" xmlns:ev="http://www.w3.org/2001/xml-events" xmlns:xlink="http://www.w3.org/1999/xlink"><defs /><rect fill="white" height="784.479576498" width="856.209440854" x="0" y="0" /><path d="M71.3835513353,122.880632955 m3.85732307434,-1.31686010361 m0.839423561096,3.28476257324 m-2.6955411911,1.53446054459 l-1.45104103088,0.398676133156 -2.29926223755,-7.19512863159 l-0.705998325348,1.51260757446 1.09684410095,-2.38221244812 m3.06584720612,-2.27622833252 l-2.2750164032,0.825755500793 2.77094249725,1.71064281464 l0.509846019745,5.84436759949 m2.62833709717,1.0845831871 l1.49858779907,2.42419815063 -0.942249965668,5.3328956604 m2.07380504608,1.76317996979 l0.743290901184,1.58423519135 -0.588830375671,2.65475921631 l1.35593280792,-0.227754044533 m-0.675476264954,0.850951766968 l0.999790382385,-5.36142921448 1.2141251564,0.135051953793 m1.88230247498,-3.40782928467 l1.69264545441,-1.18697090149 1.85906047821,-1.08909215927 l-0.975909042358,-1.22837972641 -1.49142055511,-0.223496055603 l-0.453071689606,14.5407608032 -0.239074468613,1.49067878723 l6.00155639648,0.158580851555 -2.0979347229,-3.56256141663 l1.13880443573,3.67505302429 2.32772846222,3.02279834747 l1.90731906891,0.350220918655 1.08081893921,-0.232774472237 l0.362577319145,-0.240537023544 -0.61837978363,-0.292512273788 l1.00073099136,-0.851757526398 7.28730545044,-8.5453918457 l0.692048358917,-0.728007268906 0.512367630005,-0.820393180847 l-2.27705345154,-5.09786682129 0.489427042007,0.371787667274 l-0.989285564423,-0.772935771942 0.401533031464,1.81239395142 l-2.29043598175,6.61819763184 0.861603355408,1.53185548782 l-1.05414886475,1.33419303894 5.01110801697,-6.91376495361 l0.994437408447,0.994100379944 3.00481262207,3.51066665649 l3.56472549438,-11.1472694397 -1.09312934875,1.06687250137 l0.714181613922,1.38320112228 4.24425849915,1.34768638611 l0.51646733284,0.648240089417 2.13306598663,1.14099111557 l-0.772827672958,-3.48181419373 1.38937520981,3.02708969116 l1.58473415375,-0.61996679306 1.18971357346,4.42232971191 l-1.42120447159,0.693641424179 1.35627593994,2.74554271698 l0.970515441895,1.2393907547 1.2934129715,3.03220653534 l-0.990006446838,0.939948177338 -0.835875415802,0.783576202393 l-0.613852071762,-0.477415275574 -0.144509029388,2.10219192505 l2.56968841553,2.74570960999 1.20383453369,3.48661193848 l-0.351870989799,1.29503622055 -0.120619273186,3.79502410889 l-0.137610864639,-0.288619565964 -2.431731987,6.10923423767 l-89.2501586914,23.0831420898 1.40935878754,-2.89210205078 l-5.23432502747,-4.40637741089 1.03835783005,-4.31709136963 l-0.605163192749,0.826467514038 4.13663139343,3.56839790344 l4.81909599304,-0.295018935204 0.51767244339,2.02063827515 l-2.41423397064,-2.85158500671 m-4.35399856567,-0.53771982193 l-0.326956892014,-0.298440814018 8.27878417969,-2.08891029358 m-6.21948242188,-7.85636749268 l-0.717467260361,2.56078529358 m4.25801467896,2.02483406067 m-6.57434234619,-6.28886947632 m-2.87831478119,-1.710597229 m-2.2277803421,0.660881233215 m-0.307218122482,-0.958798027039 m-0.591189289093,-0.125989735126 m11.7495407104,4.02541351318 m-2.29344520569,-2.96535663605 m1.7664188385,3.55944747925 m2.84372444153,-0.780437040329 m1.78241901398,4.09978942871 m-3.30885887146,4.80581436157 l-0.918135261536,-1.76409053802 m-2.3990032196,-2.63590526581 l-0.270645976067,9.59573669434 -1.01780586243,0.0494258522987 l-4.18190383911,-3.65432319641 2.156275177,1.82440776825 l-1.91883640289,1.26554727554 1.09020414352,1.51848945618 m0.517789745331,0.252929019928 l-2.22770690918,1.53179349899 3.17164535522,4.24727706909 m2.66891117096,0.340398073196 l-3.59727325439,-3.78416671753 -0.990258789062,3.08809890747 m0.029526284337,-0.281718230247 l0.571269989014,0.392177224159 0.533416557312,0.635598897934 l2.62931346893,-6.48364868164 m3.60178527832,0.213772821426 l-1.2340880394,4.00705566406 m-0.274231290817,-3.75849838257 l1.97102851868,-2.32887630463 -0.569169473648,3.70391616821 l0.890273189545,2.3663766861 2.54728603363,-3.39233093262 l-1.59275150299,-2.78827438354 3.02641773224,-0.543745756149 l1.24338321686,-3.42933959961 2.15610084534,-0.712529611588 l-0.464050006866,-1.48482284546 m-0.284299087524,-1.21347913742 l0.075629901886,-1.25418338776 1.12617950439,-1.08050231934 m0.478090953827,2.08681201935 l-1.83009128571,-1.28220062256 4.00839233398,4.38274803162 l2.19632568359,-0.749601411819 4.69968032837,-1.47240486145 l-0.652986097336,-1.47108402252 -3.41606903076,-3.53902206421 l0.14527387619,-0.210855603218 -1.99088954926,-0.839930343628 l0.447759056091,-1.43342456818 1.61723384857,-2.12468070984 l2.63430480957,-6.2608543396 3.35944519043,0.278056716919 l-1.59979896545,2.97030105591 0.678228378296,0.398943376541 l0.0394931763411,-1.02180862427 0.604424476624,1.18609981537 m-1.76135005951,1.81000175476 l1.42320842743,0.176967644691 -2.16141777039,2.151354599 l2.64811286926,1.92256641388 1.95430488586,4.75570487976 l2.65675315857,1.74140968323 0.525613975525,13.0718215942 l-5.08704032898,-28.2705413818 1.5232424736,-1.43893966675 l-2.15256118774,-2.91409683228 0.966635799408,-0.440035390854 l-0.325429177284,-3.81410217285 -1.18007097244,0.593608951569 l-1.41158409119,-1.51082410812 2.54597358704,-1.13741397858 l-0.400146150589,-1.62066173553 1.20905799866,-6.39431915283 l-26.7696105957,-2.19819107056 m3.38394508362,2.58613929749 l4.85611915588,5.82938079834 m3.10081501007,4.03255119324 l-1.75642986298,1.21109848022 m0.572474050522,1.38102998734 m9.87143096924,5.20177650452 m-2.56132507324,-2.18180923462 l-5.26409912109,-3.5968547821 4.97652435303,-0.882775783539 l-2.79531364441,-3.95420570374 0.773430776596,0.492032432556 l1.34877948761,-3.79853973389 1.57034740448,3.53498878479 l1.6465379715,-0.433588171005 0.447230291367,1.43139371872 l-1.45784196854,-0.889304256439 -1.18062124252,-0.0315712243319 l2.17071361542,0.940417385101 m2.78321228027,5.38362045288 m2.57342624664,-1.14666099548 l-1.41442642212,-3.17247409821 1.00294322968,-3.0414522171 l0.382089042664,-0.0844752311707 0.48388376236,-0.403629684448 l-4.26560440063,1.73005504608 0.827096557617,-0.740581274033 l0.147836303711,5.42586936951 0.845042037964,1.28686580658 l1.24049892426,-0.673549747467 -0.0303348481655,1.7429725647 l-1.73035106659,-6.24934234619 1.1148393631,0.315083408356 l0.254926657677,1.42349224091 -2.50777072906,-3.87381439209 l0.560329198837,4.04627075195 1.44758529663,0.341957378387 m0.981518173218,2.81542682648 l0.477506113052,-1.29312152863 -0.507979774475,1.39855394363 l3.60749664307,-0.552841472626 1.12813138962,-2.53197212219 l1.24438304901,-1.30384435654 m2.71950836182,0.520865821838 l1.57618713379,0.399061870575 -0.446677112579,0.317908716202 l1.80959739685,0.784088850021 -0.30299782753,-1.46626901627 l3.41994361877,2.26151046753 1.32155237198,-0.955897426605 l0.585661792755,-2.06966667175 -0.258875417709,0.146644330025 l-0.566904020309,-1.61328926086 -1.00756626129,-0.0885571718216 l4.92696762085,-1.50777511597 1.76157798767,0.15597640276 l3.4431022644,-9.91290969849 -0.863418579102,2.12890052795 l1.15104150772,0.809127616882 1.98363838196,1.03197383881 l-0.172352170944,-0.368893289566 -1.95653877258,-3.97829399109 l0.522630405426,-0.657709407806 -0.386018514633,1.84864578247 l4.62072219849,-1.31272125244 m2.43105583191,2.25861167908 l0.267942667007,0.163814258575 0.118442678452,0.867483711243 l1.26252326965,0.298068881035 2.84409484863,0.974320888519 l-0.247837567329,-3.46607627869 2.08163223267,2.2082244873 l-2.92908782959,0.984240818024 1.44983978271,0.177755355835 l1.66469402313,-0.687545537949 -1.76819019318,-0.546959924698 l0.33853263855,-1.63545856476 -0.579339075089,0.307088708878 l1.99594478607,0.650664710999 0.303972125053,-0.0785483598709 l-0.0344848096371,-1.31155118942 1.37601461411,1.78907985687 l-0.657015371323,0.197204351425 1.70580787659,0.189918255806 l1.42075042725,-2.2975194931 1.44923400879,2.47438411713 l-1.10632991791,2.03194580078 m0.161393272877,-0.0257709592581 l-2.31130867004,0.800022029877 -1.58532571793,-1.63613166809 l0.270945191383,1.51675081253 -0.830174827576,0.275160813332 l0.622600460052,3.76963500977 0.0330303430557,2.09665756226 l1.95749111176,0.711676836014 -0.554234743118,-1.95477180481 l-0.799433994293,-0.118465256691 5.08991966248,0.150319337845 l0.650991201401,1.38431787491 1.88894557953,-3.5566242218 l0.288203954697,-0.217558503151 -1.68000431061,-2.36120967865 l0.973558616638,-0.578775119781 -1.65725917816,-1.34860229492 m-1.83429641724,-2.84615879059 l2.26427249908,-2.93463993073 1.41014118195,-0.548776578903 l0.183516323566,0.801839065552 -2.39176597595,-6.63369598389 l-0.91927652359,5.85705604553 m1.73041324615,4.0727191925 l-2.1837644577,-0.307707309723 1.54519166946,2.18630218506 l0.373051381111,4.16130599976 -1.04095363617,1.36956367493 l-3.51966400146,-7.40673904419 1.2943362236,-2.00220012665 l2.43540477753,-0.179753804207 -2.10142345428,-1.54175376892 l2.05279560089,0.158012640476 -0.537827920914,0.6431889534 l0.44832777977,-1.84627895355 3.70630073547,0.152814805508 l0.738762950897,1.37972698212 0.518139839172,-5.11183738708 l0.569176101685,1.48803272247 -0.227218127251,0.433098936081 l0.151091504097,-1.33353757858 2.1334859848,5.50666847229 l6.92194290161,-5.45654754639 -0.142508935928,5.11172027588 l0.732091999054,0.379899764061 3.19950199127,-2.60912799835 l-0.49121427536,-0.277126264572 0.469774770737,0.12321048975 l1.54049100876,-0.319024705887 4.17776145935,-1.94835758209 l1.22654390335,1.88081760406 -0.294707202911,-3.0645406723 l0.485606527328,-0.580227327347 0.713821458817,-2.96973686218 l-3.07780303955,-2.53286209106 1.36361427307,-0.102079689503 l-0.29153175354,2.84484081268 1.54391498566,2.03792362213 l-1.129322052,0.617764854431 2.78776168823,0.43112912178 l1.78038196564,0.739818572998 2.08686676025,2.43607540131 l-5.48779602051,-2.53011627197 1.72153396606,-1.36729726791 l1.14404087067,0.283538556099 1.04500083923,0.468451595306 l3.50584068298,1.13802013397 0.374833106995,-0.463679361343 l-0.820639705658,-0.752519798279 -7.62654266357,2.11862945557 m1.11347827911,0.582882785797 l-0.356010890007,1.16387987137 -8.02553405762,-0.765424966812 l-0.837184810638,-1.67612400055 0.890703582764,2.83169574738 l1.05631084442,-0.593729448318 -0.241321277618,-0.728512954712 l0.10943570137,2.61914844513 -1.52484178543,4.27841339111 l0.524905920029,-1.71208724976 -1.03122501373,0.647836637497 m2.24923877716,0.761599731445 l1.62502040863,1.2171295166 m0.711990118027,0.938793563843 l-0.279603767395,0.0628462314606 -0.136093270779,-0.528510475159 l6.40579071045,0.0350122272968 1.794373703,1.09029464722 l0.927333545685,-1.36080532074 -5.85066947937,1.48104877472 l1.37199783325,-1.2990571022 -0.882510089874,1.20623292923 l6.55322952271,-6.80633163452 -1.76033267975,-0.031294375658 l0.328234577179,-2.59045181274 2.96371955872,0.167460978031 l-2.16425418854,5.65354499817 0.4956387043,0.972984313965 l3.78462524414,1.09261789322 -0.768267583847,5.76964797974 l1.36950960159,-1.11291103363 0.042688024044,-0.0439124107361 l-0.533455896378,6.25637283325 0.788376808167,-1.96297874451 l-1.63628025055,-1.17473621368 3.24059066772,-0.0584884345531 l1.03318681717,-0.438742446899 -0.590054273605,-0.536178588867 l1.19078655243,1.48469591141 0.356558990479,-0.0743566870689 l4.562707901,-12.7437362671 2.01385192871,-1.70682888031 l0.305982065201,1.0260843277 -1.39662370682,1.60224838257 l1.45488624573,2.06095237732 0.360262918472,0.854504489899 l-0.474533843994,1.07400360107 0.497639942169,-1.78327732086 l-0.68577299118,1.06152143478 2.69266662598,5.32257232666 l-0.525395965576,0.5778673172 -2.00727539062,4.27336120605 l0.0342618525028,3.224634552 -1.23707866669,-4.99437484741 l2.74450206757,-16.7682678223 2.10794639587,0.21349606514 l-0.95128736496,-1.42501163483 -0.248152160645,1.8707113266 l-0.857417678833,2.1661775589 -1.05984859467,-1.80766639709 l3.65510978699,2.7413980484 4.53190841675,6.15414962769 l2.39387779236,-1.82349662781 2.96431999207,0.744627857208 l4.13731956482,-0.48859744072 -0.108595025539,0.943172073364 l-1.38836755753,-0.173041462898 1.1672077179,0.382202506065 m2.20312328339,0.650965213776 l-0.844819259644,-1.61820678711 2.21441802979,2.59612865448 l1.59087524414,-3.81806755066 -0.286169099808,-1.20670375824 l1.42331495285,-0.775612449646 0.809850120544,2.10195064545 l1.28542098999,0.265825390816 -1.52290143967,5.52683029175 l-0.114943492413,-1.21756458282 2.32530040741,0.884975147247 l1.51000843048,-2.20865077972 -1.19101142883,0.337856888771 l0.88734369278,-26.5613708496 2.49181842804,-7.27933273315 l-0.32552113533,0.366634702682 2.03597736359,1.83572349548 l1.82338218689,2.5237695694 0.770857715607,-6.28396263123 l0.655675888062,1.41265163422 0.705750370026,-85.6861694336 l1.61198406219,3.16663208008 2.95320549011,11.4298858643 l-0.737567949295,2.62659988403 5.25797843933,8.81954345703 l-7.62806243896,-2.27255039215 -35.2689239502,-11.5569061279 l-3.34703330994,-0.503951644897 5.21503448486,7.01066207886 l2.83926582336,9.09002304077 m8.58144073486,22.404510498 l7.34542694092,-4.52133483887 9.28864364624,13.3266662598 l5.46486625671,2.64163417816 -0.256587004662,-5.72291564941 l2.81212520599,2.84802837372 0.905630874634,2.82283611298 l-0.0540480494499,1.9833322525 -0.519330787659,-0.409658718109 l-0.871929359436,-0.66810708046 0.652569007874,1.78835849762 l-1.82158622742,-1.24971370697 2.95262794495,4.54894180298 l0.735707330704,0.106837725639 0.725251913071,1.57822914124 l-1.11847219467,-0.0356596827507 -0.635626745224,-3.0323348999 l1.71364326477,0.193384790421 -0.708197975159,-1.60526409149 l-0.102680408955,-4.40071640015 1.08685417175,-4.71634750366 l0.367659306526,1.20989284515 -1.15042953491,-1.83812122345 l-3.90968017578,8.15102081299 3.65590019226,5.02448997498 l-1.70206413269,0.836529350281 2.6374376297,3.7596496582 l1.23571863174,-1.74074287415 0.0356090635061,4.53670349121 l-22.8654602051,12.7982513428 4.20736618042,-0.259365677834 m10.7887229919,3.19396400452 l6.22972297668,-1.93699150085 -0.300105690956,-2.72570590973 l0.439102125168,3.34774932861 -0.723815345764,0.892433643341 l-1.67087688446,-2.59011745453 5.29074554443,-0.874878406525 l-1.29064083099,1.57750205994 -0.954129695892,-0.198611569405 l-0.148678195477,1.6416475296 -1.30205478668,1.36962165833 l-0.765793991089,2.12610836029 3.06220588684,-3.88573875427 l1.80501708984,0.680412483215 5.16554069519,-7.42853851318 l2.15705757141,-2.43948974609 -1.07216157913,1.34954538345 l1.55625915527,-0.995684719086 -0.157650184631,1.55780391693 l0.841560459137,2.57199440002 0.849354553223,4.14064750671 l0.759055423737,-3.4943611145 1.59717655182,-0.985124969482 l-1.5209569931,-0.0909318447113 -0.338654661179,1.85913047791 l4.50805435181,-1.45295038223 1.52889518738,-2.17536621094 l1.18222465515,0.0932960271835 1.46464729309,-0.0176567196846 l-33.1702850342,5.36169090271 0.919725894928,0.420254278183 l0.529497385025,-3.4763092041 0.117739641666,0.206281995773 m2.47779808044,-0.254096007347 l-2.14830436707,13.2486633301 2.78449440002,4.90584983826 l-1.66361408234,-1.4375582695 m5.0630821228,-2.36398487091 m-18.3585739136,-12.6262649536 l-1.90509052277,-2.88071346283 m-2.4460849762,-0.522432422638 l-10.9392028809,-13.5515411377 -3.3746257782,-10.919442749 m6.52261962891,-0.0541899740696 m-0.738092136383,-1.31070947647 m-2.96584873199,1.05819740295 l25.5216918945,15.6547973633 m13.5042098999,7.38376159668 m4.59387817383,5.20309066772 m-4.78176498413,1.09240922928 l9.61083145142,8.48627166748 m0.309371137619,3.25603942871 l2.58529376984,2.96248397827 -0.724770021439,7.20268173218 l0.702967643738,1.10588798523 0.583683395386,2.00784797668 l1.31046285629,-1.07263889313 1.83923950195,-0.296224856377 m-0.696014642715,0.0121774852276 l1.19412660599,-1.04392948151 0.274433803558,0.336591148376 l0.767933654785,-2.4592414856 5.40090751648,-1.70372428894 l0.856254863739,-1.03000125885 -0.497056865692,0.212379264832 l1.80510482788,3.01528720856 2.41740684509,-1.53363838196 l1.71975250244,0.936236667633 1.1493891716,0.698419094086 l3.82757415771,-3.59022483826 -5.73297691345,-2.70166950226 l1.03205833435,1.31466732025 2.77796897888,-2.63680534363 l-0.487981367111,0.264144396782 -0.886940670013,-2.42733192444 l1.31296043396,0.0805781126022 -1.58199577332,3.33420181274 l1.36135540009,0.910171318054 2.65555305481,1.70502681732 l-0.671915006638,-3.20000305176 -1.40439596176,2.30069503784 l-0.282233834267,-1.87499485016 0.413718414307,0.871619033813 l-0.447314167023,-1.13863763809 0.435477924347,-0.126535522938 l1.12647304535,1.43275032043 1.14354276657,2.09315319061 l1.22493190765,-2.30262832642 2.00081977844,0.517380523682 l3.25652770996,0.476904058456 -0.0331899762154,0.773096036911 l2.09190940857,0.344151210785 -0.786169338226,0.680208921432 l0.639865398407,1.0933839798 1.93669624329,-1.01403331757 l0.598027801514,1.91148643494 -1.69604301453,0.321252346039 l67.6692443848,-17.690246582 1.45446014404,1.66078300476 l2.47112636566,-0.794937849045 0.58778591156,-0.0291222453117 l-0.776026439667,-1.12598600388 -1.51146602631,0.791703176498 l-2.06503372192,4.29263839722 2.03047351837,-1.3860616684 l0.770041179657,1.47292900085 1.01207847595,0.702402639389 l-0.48377737999,3.45082015991 -1.64618644714,0.100652039051 l0.781510543823,0.85183467865 1.08106002808,0.443589782715 l7.75460662842,3.01467876434 0.298487997055,2.22881546021 l1.7097202301,3.99157943726 1.44228305817,0.54599738121 l2.7786239624,-0.283857131004 0.90746421814,2.37186050415 l-0.0898613393307,1.82895488739 0.140902090073,4.0557510376 l-0.698111629486,1.05696201324 -0.350597047806,0.956384468079 l-0.20276491642,0.43000869751 -0.890152645111,-2.40171146393 l-0.68773393631,1.73869018555 -1.56824207306,2.59214477539 l0.345057368279,0.641495323181 0.0343566983938,1.06280565262 l2.8692281723,1.47291183472 0.602164268494,1.90199737549 l-0.289713287354,-0.184344387054 0.722586727142,0.62904381752 l-0.928262329102,0.739101028442 -62.0677734375,29.4044769287 l2.05675888062,2.9996635437 -4.19994888306,-7.70319061279 l0.74240231514,20.7966400146 5.37637252808,1.86049537659 l2.93355407715,3.38526344299 11.0257171631,5.03613090515 l0.193572354317,-3.80728187561 m-22.0685562134,-10.2318634033 l0.583092975616,7.38961486816 5.0068359375,4.85559234619 l0.959132766724,-4.32060699463 m0.934096050262,-2.0426574707 l-0.0668105006218,-1.0305398941 -2.88936004639,30.1123474121 l-0.0149999856949,8.43248443604 -2.86682624817,-0.299322223663 l-4.94550628662,-7.32837905884 1.61268196106,0.796909856796 l1.321600914,4.2540851593 -14.2230300903,9.42093048096 l2.06765708923,-0.372604179382 1.60529308319,-5.00508499146 l2.5008605957,0.842578792572 -0.76238822937,-0.221598768234 m2.29505805969,-2.40703296661 l2.95443077087,-0.203522920609 1.32783794403,0.220486068726 l2.71444034576,0.0881187081337 0.55529127121,-1.96804389954 l-0.0157660037279,-1.29049682617 0.420390748978,-3.0998632431 l1.61479282379,-3.14810829163 0.390794634819,-3.3873840332 l-0.430817508698,0.627180099487 3.21899414062,-0.535483312607 l-2.07924671173,-0.300014281273 0.0197713464499,2.95038261414 l-2.40998268127,-0.626654720306 0.376753044128,-2.7786397934 l-3.59240684509,0.614934015274 -0.0689663171768,1.50170469284 l-0.96016740799,0.483607053757 10.5014953613,-7.87455291748 l0.0786194682121,1.1003900528 -4.12658233643,1.05748691559 l1.46733074188,0.90479927063 1.40010976791,1.42049617767 l-0.0252182990313,4.6679107666 1.07736740112,1.31314954758 l3.8627822876,-2.54518928528 0.444256687164,-7.43895111084 l2.55810012817,2.09369125366 1.21154031754,-3.56938323975 l3.11019706726,1.86599311829 2.59956645966,-1.64024505615 l0.171358478069,-0.33933391571 -0.761393356323,1.5613325119 l-0.607458686829,1.19330406189 1.29889221191,1.73438262939 l1.48208065033,3.1465473175 1.66928939819,-2.73296260834 l-0.61290640831,2.51653671265 1.21101236343,0.736267375946 l-0.622716712952,1.7798915863 2.17485771179,0.555929136276 l0.0293451905251,-1.32731933594 1.21424751282,-1.65553627014 l-1.44916038513,2.36405220032 1.42060337067,0.948539638519 l0.728414297104,-2.44680118561 -0.121603882313,0.687680673599 l3.65636978149,0.860867500305 -0.133243370056,-4.78434944153 l1.44484472275,-0.322687959671 1.3866973877,-0.319333767891 l0.941049480438,-2.3580286026 0.803247928619,-2.37736282349 l-0.74901342392,-1.12618169785 1.27193365097,-1.34067955017 l5.0694278717,1.03214635849 5.5357170105,-1.59450283051 l0.353924536705,-1.18022060394 1.37024259567,0.438199806213 l3.65985717773,-1.59710483551 0.819129371643,3.75176849365 l-0.339628481865,-1.70700874329 -0.998871231079,0.566513633728 l1.46094026566,1.25966281891 -13.6400466919,19.4616851807 l1.89098510742,0.443656158447 -0.47637925148,55.4873474121 l7.60627059937,0.13714056015 -0.298597931862,-63.5317932129 l18.0074539185,6.32610473633 0.357007956505,4.28384933472 l-1.17297506332,-8.17532043457 4.00234565735,9.30751113892 l1.28283729553,1.21788864136 3.25146369934,24.2586853027 l2.44189739227,8.37507324219 1.38641061783,-0.128092622757 l4.35499343872,2.72442779541 2.38204841614,2.54792022705 l6.37093048096,1.39804763794 0.978661823273,1.69630050659 l1.25730428696,0.164474308491 2.86956806183,1.98653011322 l3.73043212891,-1.49597787857 0.62530002594,0.476204013824 l1.30102777481,3.24653701782 1.95682353973,1.58482780457 l-2.53695220947,-2.63421535492 0.0115164354444,2.05717658997 l1.00763835907,0.934625053406 1.60831222534,-1.33095741272 l0.100325298309,1.16893844604 -0.036784774065,0.812540626526 l2.08420410156,-1.35779275894 1.07645978928,0.211358976364 l2.00007362366,1.42870798111 0.863095188141,1.78689460754 l2.03052062988,1.58040676117 6.41417007446,0.115244078636 l0.305270552635,10.0337524414 3.01310386658,-3.54251060486 l-0.277298164368,1.21520347595 1.50301465988,1.69294281006 l1.54361019135,1.90478878021 2.92555160522,1.03364372253 l2.14683895111,1.50048685074 1.24980812073,-1.15608234406 l0.545198202133,-0.734216213226 3.03152046204,-0.770723724365 l1.63825340271,-2.77571907043 0.947256278992,0.928823566437 l-0.622231483459,0.0687005519867 -0.522078514099,5.58303070068 l-1.30149593353,0.793469667435 -0.221605992317,-2.73379173279 l-0.414337444305,2.49743537903 2.43132781982,-1.02241983414 l0.248176431656,3.11144351959 1.00693187714,4.16167259216 l0.749576854706,1.38950300217 1.49764938354,5.64947433472 l2.17893295288,-3.09364147186 1.73396434784,0.483543634415 l44.0862365723,-38.5305023193 -0.113532400131,1.65122776031 l-0.122688376904,-0.115192043781 m0.2119348526,7.4522026062 l4.43863220215,-15.5373245239 -1.89341945648,-2.28221855164 l2.73777542114,-5.59844017029 1.69467544556,-3.36107292175 l2.87744121552,2.21005935669 0.0315778106451,2.07925643921 l3.6451713562,1.88742847443 5.63299217224,11.7995986938 l3.20775909424,4.49122314453 1.59776725769,-3.35272216797 l2.6270608902,1.32111177444 2.46498718262,2.24040126801 l1.41885652542,0.585740375519 -2.69337444305,3.02167720795 l2.41955986023,-1.41166973114 0.0546969532967,2.09829120636 l0.670052480698,1.87423915863 -0.117468678951,-0.482777166367 l-2.76526069641,272.526660156 21.9678009033,16.7894836426 l4.36031913757,6.57290725708 10.1857208252,14.8636901855 l9.5260383606,9.87018890381 5.22699432373,8.99540863037 l-0.402097702026,-9.30993804932 7.44238204956,11.9949104309 l6.25180358887,0.961530399323 0.326165819168,-3.36406669617 l-1.1095785141,-13.2723983765 1.80634384155,0.169076752663 l1.68113937378,-1.8424156189 -0.215594863892,-1.84654369354 l2.27091598511,-0.324384236336 2.70302276611,-2.02039985657 l1.78909263611,-1.79313774109 4.64048080444,-2.93731098175 l0.733632326126,3.52225837708 1.8790184021,-1.19628696442 l1.52492952347,2.21975784302 -3.67710380554,-4.94462547302 l1.11272706985,2.86750717163 1.9606710434,-3.99018821716 l1.190828228,2.99841995239 1.67637290955,5.20949554443 l1.27482366562,0.178425574303 1.33697891235,2.44766426086 l1.54829921722,2.90798473358 2.59535427094,2.86322212219 l2.66152801514,1.51115913391 0.986284065247,-2.54676151276 l3.38293914795,-3.64454498291 -0.0510952889919,1.3288318634 l0.156187725067,0.706743526459 1.86653804779,-1.53026409149 l5.31916351318,-7.77377700806 0.623410129547,1.13724822998 l2.65910110474,6.80016174316 2.123462677,-0.948851299286 l-28.8844116211,42.8641662598 5.82027816772,-10.8619155884 l1.41279172897,-2.04657783508 5.48970222473,5.40419044495 l0.398687005043,0.346240878105 0.617369842529,1.97401828766 l0.853188228607,2.84651355743 -0.33929681778,8.27150115967 l10.6264312744,-2.84228610992 -71.2632751465,-20.4042358398 l0.22711160183,-0.431730031967 -1.9761302948,0.716457176208 l3.74840240479,0.402431583405 -0.128801691532,0.835761928558 l-14.3488494873,44.4506347656 7.95135192871,11.0163085938 l17.2580108643,30.2980072021 -2.98828792572,-15.0217071533 m5.75711402893,7.21997070312 m-171.086621094,-123.061694336 l-3.57164421082,3.87533874512 3.30937843323,-2.29183387756 l-0.42774014473,1.05062389374 3.3994934082,2.10925292969 l2.73480224609,0.191935956478 0.201643824577,-2.66771621704 l3.57332649231,4.29565200806 m0.183373236656,-5.71123161316 m6.13738632202,0.675707817078 l3.92749290466,7.79202194214 m4.74242973328,12.4537445068 m2.92598819733,-0.0353020399809 l4.24015007019,4.3294506073 m1.1718834877,-3.39513702393 l1.30077342987,-4.65557060242 -3.26569023132,-0.514449834824 l-2.02065811157,2.07968025208 -0.259968519211,-0.406774759293 l3.84127845764,-8.54423675537 -0.722947835922,1.55566082001 l-1.3135974884,1.08691577911 0.164156866074,-1.98475627899 l-1.31466560364,-0.132832229137 2.30264167786,3.52037391663 l-0.318039417267,1.83610744476 -0.925559520721,-0.517959022522 l1.75067882538,-0.215302443504 2.00010681152,1.31674108505 l-0.870017814636,-0.0481744229794 -0.58804101944,-1.62761650085 l1.80062179565,1.32435436249 5.84383621216,3.48705940247 l-1.63637886047,-1.35729494095 -1.08763036728,3.05370025635 l1.61757011414,0.0128815948963 0.536173248291,1.47696790695 l1.7373960495,8.87823410034 0.8562748909,0.0696973741055 l2.04215774536,-0.270155453682 1.16043243408,-1.28184947968 l-0.0712411642075,2.5474615097 1.3067492485,-1.21059169769 l0.0668573141098,-1.69034423828 1.91134719849,-0.659022283554 l-1.62756690979,-2.003191185 1.11620416641,0.899798679352 l2.24158973694,-5.5610370636 0.0195987835526,1.60513439178 l-3.41951065063,-3.260496521 0.61268415451,-0.966758155823 l-0.600321531296,-3.10400047302 -2.3881319046,-2.27929840088 l2.35025310516,2.17311019897 3.4430809021,1.18266067505 l-46.3726776123,21.8385391235 1.75191936493,0.495142173767 l2.21025562286,-0.109931206703 4.06717605591,3.9905708313 l-6.95462112427,-28.4332855225 1.82391681671,-0.85571641922 l-2.46368141174,1.26076745987 1.9537853241,-1.87796936035 l-6.35883102417,-1.88434352875 7.18116149902,2.82478618622 l10.6275650024,8.04896469116 4.19501304626,-10.4321243286 m-6.83573913574,-0.702831363678 m0.707221269608,3.50972709656 l3.03334197998,2.3220998764 2.32472381592,2.5249835968 l0.473443937302,-0.309822583199 0.761208438873,-2.42189292908 l0.894079399109,-6.17340545654 1.78019390106,-2.15239315033 l-0.274377942085,1.8225528717 0.972425842285,-5.34017486572 l-0.655676364899,-0.798740673065 8.46979446411,-0.746026277542 l1.36235961914,-0.866130447388 2.51311016083,-3.77903785706 l-1.6358423233,2.46919746399 -0.563628196716,3.91156234741 l0.526458311081,-0.00958078429103 1.07440299988,-9.14670639038 l-0.670855140686,4.30038871765 -0.213306879997,3.18988761902 l2.35994434357,1.25390434265 1.46414375305,-0.000745771732181 m0.11796875,0.857577419281 l-0.242263031006,-0.709584188461 0.209145140648,-1.16920490265 l-1.77114505768,-0.767410755157 0.324306917191,1.3757973671 l-0.944389057159,0.709091615677 -1.38036632538,-0.70518450737 l0.867910289764,-1.08948287964 3.20332756042,4.40408248901 l0.255414438248,1.4126906395 4.07071609497,4.37807312012 l-0.763299751282,-0.0480324923992 0.718254613876,-0.332162570953 l-0.102573132515,2.53541870117 -3.70979156494,1.89681339264 l2.62561950684,0.8085688591 0.706611251831,1.36416187286 l-1.33021306992,-1.02379798889 13.8699920654,6.59145812988 l1.15871572495,-8.22735290527 1.09515399933,-0.550047683716 l-1.09338750839,2.06636276245 -1.25335502625,1.78150138855 l-1.81219711304,-32.4242889404 -0.23188996315,-0.858185577393 l-1.13816747665,-0.813809394836 2.12989635468,-1.15913047791 l3.27707290649,4.69099273682 -3.93596878052,-17.0788497925 l34.112197876,9.67704162598 3.27897033691,1.50809822083 l-0.301339578629,0.954187965393 -0.312602877617,3.02997436523 l-0.260262846947,1.26449546814 7.95116653442,-0.023017603159 l-5.43581047058,12.7256477356 0.524396371841,1.14891700745 l2.97237682343,2.93026180267 4.23070106506,5.79803123474 l-0.804509353638,4.77166671753 1.41865520477,-1.3534828186 l-1.37324800491,0.319126725197 1.97049503326,-2.51025810242 l4.53939666748,-0.680414009094 3.25708312988,0.114559412003 l2.47190570831,-2.08855209351 0.0663996398449,2.068359375 l2.28380489349,3.16923522949 -1.23469362259,5.10436553955 l1.44406852722,-0.0769174456596 -0.215258908272,-5.06011199951 l-1.00877990723,-2.02763442993 0.0495875030756,1.07854070663 l2.42055130005,-0.564357185364 2.78794651031,2.97595100403 l-0.454287910461,-0.603711605072 0.908100032806,1.53181304932 l26.1875244141,4.75982627869 2.27276382446,-0.81228685379 l2.03703536987,0.427566814423 -0.551169919968,2.83034286499 l2.52146568298,0.946475410461 0.582758378983,-2.11569004059 l1.96998977661,-2.19620723724 5.5125541687,-14.9668334961 l-0.262576961517,0.194801020622 -1.51476564407,-0.573322296143 l-0.965990447998,-0.878746414185 -2.83069229126,-3.45756988525 l-2.19654483795,-1.89160270691 0.436318302155,3.455235672 l2.49289512634,1.66461048126 -0.649037122726,-1.24863033295 l2.10807495117,7.17825393677 5.20972518921,6.34040145874 l2.9283039093,-0.997534656525 -1.42484970093,60.5955688477 l-10.729561615,-10.0446922302 5.14235725403,6.56546783447 l5.64694252014,2.35337295532 0.922968959808,-2.26900196075 l0.500687599182,3.37546386719 4.6860534668,7.30617599487 l1.76659927368,-3.2146232605 1.50151729584,0.186013936996 l0.83567905426,3.84325752258 1.95593566895,0.587943601608 l-0.728213787079,0.384875679016 1.34167900085,0.462461948395 l0.700192165375,-2.72627410889 0.151142072678,0.399456501007 l-0.146305775642,0.927302265167 0.683553791046,0.826076698303 l-0.804048347473,-0.778637456894 -1.17273273468,0.71963300705 l-0.984321498871,1.08997001648 1.38276777267,-1.30335464478 l4.56389808655,14.2855163574 3.31625404358,0.936487770081 l-0.832417297363,-3.51380653381 3.78874549866,2.26927070618 l0.165450835228,2.45325927734 0.712151288986,0.837561416626 l2.39082317352,-1.99787635803 0.919599342346,0.917135334015 l-0.0492573857307,1.63727588654 -1.1777671814,-1.40747051239 l0.886831474304,0.0562640011311 -0.057688075304,-4.80132064819 l0.731215429306,2.11150360107 -0.580418205261,2.0809387207 l0.647463130951,5.98260879517 0.224837470055,0.980056667328 l1.71048679352,0.902065372467 118.190454102,-41.760949707 l-0.253059864044,0.41352186203 -1.28026018143,0.136393606663 l2.17143535614,-0.514077091217 2.19519023895,0.588076496124 l-1.62108440399,-1.25640163422 9.88585968018,-1.31919441223 l-103.002148437,54.2450195313 2.42260379791,-2.53213424683 l0.718103790283,0.492725419998 1.2691368103,0.690869617462 l0.37522995472,1.35324382782 1.08500900269,1.59877576828 l0.887581729889,-0.64408788681 2.31493415833,1.49398212433 l2.42629203796,3.65633811951 2.21874351501,3.53431892395 l5.65041656494,-1.44406042099 2.42832012177,0.586117506027 l-1.5473947525,-11.536441803 1.09120349884,-0.788406133652 l0.779384183884,-1.23543758392 -0.780443716049,-0.356738853455 l2.03758239746,-1.39324131012 0.237441253662,0.13829678297 l-1.19564418793,-0.416782140732 -0.615564727783,-0.0482839047909 l-1.09712686539,1.38685722351 -0.0219120308757,-0.558376121521 l0.199478745461,0.564748239517 -0.731879806519,1.43055839539 l-0.10568318367,4.61323699951 0.410982465744,-3.54448852539 l1.88272457123,-1.54121799469 -4.3807182312,-2.09703655243 l10.4228347778,-8.86027145386 -2.26185455322,4.21806335449 l1.71440887451,7.62138061523 0.913206577301,1.6073348999 l1.18589057922,0.420036888123 2.59130249023,0.74889922142 l0.00913753658533,2.88219337463 2.33361034393,1.30377407074 l1.10598449707,3.58902664185 1.8667350769,0.301392555237 l1.08063745499,-0.374695253372 1.62565307617,-2.65212459564 l1.21513757706,-1.02657299042 -2.67599830627,0.678673362732 l-0.211210870743,1.45062942505 0.177153944969,-0.194769012928 l1.12443218231,-0.205241155624 0.554646539688,0.344216322899 l-1.63447360992,23.3133773804 10.455380249,-3.91471633911 l-0.331702423096,-0.513599395752 1.30980434418,3.38494758606 l1.66036071777,2.17920665741 0.696432542801,2.52450294495 l2.83495368958,2.8964389801 2.03100013733,-0.433187770844 l-1.42586307526,-0.0403482913971 -5.15751037598,5.71746444702 l1.93450393677,1.99259567261 4.30532684326,-0.786580276489 l1.16813840866,1.5791721344 -1.11047267914,0.630532455444 l2.00595283508,0.669561624527 1.36222343445,-1.42651376724 l-1.40176477432,0.971085834503 1.43989830017,1.12535514832 l0.13855522871,1.58531036377 0.611770057678,-1.11100244522 l-1.02818593979,-34.0421203613 -1.76613082886,2.05281944275 l2.97593860626,-8.66832427979 -0.316663479805,0.216705822945 l2.4239906311,0.540681791306 4.42706756592,0.788845300674 l-28.7871154785,-2.70958518982 2.18776016235,2.05418872833 l5.05919189453,10.4946212769 1.44145050049,9.08293228149 l4.40608215332,2.15069961548 3.98212280273,-5.21320648193 l-0.733932542801,-2.01339740753 -2.79870605469,0.375239348412 l2.11373806,-3.22574005127 0.98339471817,-5.65376815796 l-13.0463150024,10.132069397 1.55821285248,1.31805143356 l10.8935821533,-32.7035186768 -0.0197223708034,-15.4449066162 l1.52907466888,-2.50095252991 11.2366027832,-8.85177764893 l4.5925567627,6.73771820068 m4.46633377075,3.42820281982 l5.11529350281,12.2801712036 2.10750465393,7.93048171997 l2.04790782928,-16.0583969116 3.4699016571,-1.13530254364 l2.67827777863,-1.07196855545 1.89479789734,-0.493354225159 l2.29339752197,-0.182195794582 2.58674030304,2.26376686096 l0.681967306137,-3.54049530029 2.92910614014,-0.475615406036 l-0.0204357773066,1.85256214142 0.907178497314,1.79353485107 l-3.83034095764,-5.04405517578 3.01735229492,8.07230377197 l2.81960391998,-0.42139081955 3.68305282593,2.8320766449 l3.32909355164,4.53219413757 2.17630977631,0.499830532074 l1.25711641312,2.81234855652 -0.527944660187,2.48539619446 l-2.22061138153,0.103731381893 -1.94650230408,-1.5321846962 l-3.00432300568,1.30351934433 2.29801540375,-0.0767025828362 l1.78440303802,1.72981357574 -1.10238399506,2.09471931458 l101.040588379,-19.9328598022 -0.0623628258705,-0.326495552063 l-1.02323989868,2.06658248901 -7.98289413452,5.96388626099 l0.927599048615,-0.71454744339 0.527609395981,0.659722852707 l0.968751430511,-2.51576023102 3.57443389893,-0.0807957708836 l-0.195186805725,0.39106991291 7.99214096069,1.58187484741 l0.816807556152,2.65246315002 0.617652702332,1.19105825424 l0.812157344818,-2.78194618225 0.86932144165,-0.393946933746 l1.89620399475,1.86208457947 1.90854663849,-1.29735927582 l0.0164502441883,0.803416442871 0.571980571747,1.71835651398 l0.373293924332,1.4332493782 3.04367523193,3.00154685974 l1.62980041504,1.96333293915 0.568281459808,-4.16773681641 l2.11487083435,-0.148145389557 -1.49245843887,1.12438640594 l2.19234752655,1.18701658249 0.797826194763,0.865596389771 l1.81540374756,-1.61673927307 2.27003898621,3.79289665222 l3.07052841187,3.57340965271 0.00245502106845,2.63072013855 l0.459496307373,-0.454103946686 0.240132522583,1.8812953949 l0.212273430824,2.90277576447 -0.757750558853,1.78901596069 l1.18266162872,-2.09289722443 3.88884429932,0.0044122569263 l-0.936115646362,-1.46630716324 2.35654335022,-1.93288974762 l-1.09721860886,0.535077524185 0.944455623627,1.71947135925 l2.74910182953,-0.841911506653 1.45729866028,3.4261100769 l1.46335401535,-0.268503761292 3.90456085205,1.153794384 l0.913012123108,3.79111251831 0.561892318726,-0.928863334656 l0.155430483818,-2.03438930511 -1.75059185028,-1.4191655159 l-0.187644183636,-0.165789294243 -1.2342048645,-1.76595058441 l-1.89394283295,1.77533798218 1.56661214828,-1.30727376938 l1.50109434128,1.60236206055 1.11485204697,1.90983734131 l0.368783450127,3.29262542725 -0.37054567337,0.498973369598 l-22.0436676025,-46.8768371582 1.38717384338,-1.66216373444 l3.82318878174,2.12940864563 2.7659280777,0.114057767391 " fill="none" stroke="black" stroke-width="1" /></svg>