<?xml version="1.0" encoding="utf-8" ?>
<svg baseProfile="full" height="117.6" version="1.1" width="536.0" xmlns="http://www.w3.org/2000/svg" xmlns:ev="http://www.w3.org/2001/xml-events" xmlns:xlink="http://www.w3.org/1999/xlink"><defs /><rect fill="white" height="117.6" width="536.0" x="0" y="0" /><path d="M25,25 m10.4,14.1 l0.1,0.3 0.0,0.6 l-0.1,0.5 0.0,0.8 l0.3,1.3 0.1,1.4 l0.1,1.3 -0.1,1.3 l-0.1,1.5 0.1,1.8 l-0.2,1.8 -0.2,2.0 l0.2,2.6 -0.2,2.8 l0.0,3.1 0.1,3.1 l-0.2,2.3 -0.3,1.9 l0.2,1.6 0.4,1.1 m0.9,-36.2 l0.6,-0.2 1.0,-0.3 l0.8,-0.5 1.4,0.0 l1.6,0.4 2.1,0.5 l2.2,0.8 2.9,1.5 l2.6,1.6 2.8,1.9 l1.6,1.7 2.0,2.0 l1.1,1.7 0.4,1.7 l-0.1,1.6 -0.6,1.4 l-1.1,1.2 -2.1,0.6 l-1.8,0.7 -2.1,0.5 l-2.6,-0.2 -2.0,-0.3 l-1.0,0.2 -1.1,-0.2 l-0.5,-0.2 -0.3,-0.3 l0.5,0.1 1.1,0.3 l2.0,0.7 2.2,0.9 l2.5,1.3 2.3,1.4 l3.2,2.2 1.7,1.6 l1.3,1.6 0.7,1.5 l0.1,1.3 0.0,1.5 l-1.0,1.1 -0.9,1.7 l-1.8,1.0 -2.3,0.9 l-2.2,0.8 -3.2,0.1 l-3.3,-0.2 -3.0,-0.2 l-3.0,-0.6 -2.5,-0.6 l-2.1,-0.4 -1.2,-0.3 l-0.3,-0.3 1.0,0.0 m31.9,-13.2 l0.0,0.0 0.2,0.3 l0.3,0.3 0.2,0.3 l0.5,0.7 0.7,1.0 l0.5,1.1 1.2,1.6 l0.3,1.2 1.4,2.0 l0.7,1.4 0.8,1.5 l1.3,1.6 0.8,0.8 l0.8,0.4 0.1,-0.5 m10.3,-17.3 l0.4,-0.3 0.5,0.0 l-0.4,-0.2 0.1,0.5 l-0.5,1.0 -1.1,1.6 l-0.7,2.4 -0.8,2.7 l-0.4,3.0 -1.6,2.5 l-1.2,2.9 -1.2,3.1 l-0.9,3.2 -0.5,3.3 l-0.8,3.1 0.1,3.2 l-0.1,2.6 0.0,2.0 l0.1,1.3 0.4,0.3 m43.1,-55.9 l0.0,0.0 -0.1,0.1 l-0.6,0.2 -0.4,0.6 l-1.0,0.7 -0.5,1.5 l-0.9,1.9 -0.7,2.3 l-1.3,2.2 -0.6,2.8 l-1.2,2.7 -0.6,3.1 l-0.3,3.4 0.8,3.4 l-0.1,2.4 0.8,2.1 l0.6,1.1 0.7,0.4 l0.8,-0.2 1.7,-0.8 l1.8,-1.3 1.5,-1.8 l1.7,-2.0 1.1,-2.5 l0.8,-2.3 1.3,-1.5 l0.3,-1.1 0.3,-0.3 l1.0,0.5 0.7,1.2 l0.9,2.0 1.0,2.5 l1.5,2.8 1.5,2.4 l2.4,2.2 1.6,1.2 l2.2,0.5 1.9,-0.3 l2.3,-1.1 1.9,-1.9 l2.2,-2.2 2.2,-2.5 l1.6,-2.9 0.8,-3.3 l0.8,-3.3 -0.3,-3.3 l0.2,-2.6 -0.8,-2.4 l-1.2,-1.9 -1.4,-1.5 l-1.0,-1.0 -0.1,-0.4 m23.3,12.5 l-0.1,-0.6 -0.9,-0.8 l-1.3,-1.0 -1.9,-0.8 l-2.1,-0.5 -1.6,0.5 l-1.6,1.1 -1.2,2.0 l-0.9,2.2 -0.6,2.4 l-0.3,2.7 0.4,2.9 l0.5,2.2 1.2,1.8 l1.2,1.0 1.3,0.3 l1.3,-0.6 1.5,-1.3 l1.2,-2.0 1.4,-2.1 l1.0,-2.4 0.5,-2.4 l0.5,-2.1 0.3,-1.5 l0.0,-0.7 -0.1,0.1 l0.2,0.5 0.3,1.9 l0.0,2.4 0.5,2.8 l0.1,2.9 1.0,2.8 l0.1,2.0 1.1,1.4 l1.1,0.4 1.9,-0.6 m8.3,-30.1 l-0.4,-0.4 -0.4,0.0 l0.0,0.3 -0.5,1.0 l-0.6,2.0 -0.6,2.9 l0.2,3.9 0.7,4.6 l0.1,4.6 0.9,4.7 l0.4,4.2 0.6,3.5 l0.0,2.3 0.2,1.1 l-0.6,-0.6 0.6,-0.9 m10.1,-31.4 l0.3,0.0 -0.3,0.0 l-0.3,0.5 -0.4,1.7 l0.1,2.6 0.1,3.3 l0.5,4.2 0.4,4.5 l0.4,4.2 0.1,3.9 l0.2,3.5 0.6,3.0 l-0.1,1.7 0.0,0.7 l-0.3,-0.2 0.2,-1.1 m-1.2,-19.0 l-0.5,0.0 -0.7,0.0 l-1.8,-0.2 -1.4,-0.1 l-2.6,-0.2 -1.1,0.4 l-1.6,0.5 m10.0,8.2 l2.9,0.6 2.7,0.0 l2.2,-0.6 2.4,-1.1 l1.7,-1.4 2.1,-1.5 l2.4,-1.2 2.1,-1.4 l1.7,-1.7 0.5,-2.0 l0.0,-1.8 -0.5,-1.7 l-1.3,-1.1 -1.6,-0.4 l-2.3,0.2 -2.1,0.8 l-1.6,1.6 -1.6,2.3 l-0.7,3.0 -0.3,3.2 l0.2,3.1 0.7,3.0 l1.4,2.4 2.1,1.8 l1.4,0.8 2.3,0.1 l2.6,-0.6 2.4,-1.2 l3.0,-1.2 2.6,-1.7 l2.4,-1.9 2.3,-2.1 m2.6,-8.1 l0.1,0.5 -0.4,1.1 l0.0,1.8 0.1,2.4 l0.4,2.9 1.2,3.2 l1.1,3.0 0.7,2.1 l0.0,1.0 0.0,0.0 l-0.1,-0.6 -1.0,-1.9 l-0.4,-2.7 -0.7,-2.9 l-0.3,-3.1 -0.3,-3.1 l0.3,-2.5 1.0,-2.0 l1.0,-1.5 2.9,-0.6 l2.3,-0.3 2.1,0.1 l2.8,0.7 1.4,0.5 l2.1,0.5 1.7,0.1 l1.5,-0.5 m35.5,-8.3 l0.1,0.0 0.0,0.0 l-0.1,0.2 -0.5,0.4 l0.3,1.3 -0.3,2.2 l0.5,3.1 0.2,3.2 l0.6,3.8 -0.6,3.7 l0.3,3.9 0.0,3.9 l-0.2,3.6 0.1,2.8 l0.1,1.7 -0.2,0.4 m3.1,-36.4 l0.0,0.2 -0.1,0.1 l-0.4,0.0 -0.5,0.2 l-1.3,0.0 -0.9,0.3 l-1.0,0.4 -1.4,0.3 l-2.4,-0.3 -2.4,-0.4 l-2.8,-0.8 -2.3,-0.5 l-2.0,-0.4 -1.6,-0.2 l-0.1,0.2 0.6,1.0 m23.5,24.8 l1.4,0.6 1.8,-0.1 l1.5,-0.5 2.2,-1.0 l1.7,-1.3 2.2,-1.3 l1.4,-1.4 1.4,-1.4 l0.6,-1.7 -0.2,-1.8 l-0.4,-1.2 -1.1,-0.7 l-1.6,-0.2 -1.5,0.6 l-1.6,1.1 -1.6,1.7 l-1.2,2.5 -0.8,2.9 l0.0,3.2 0.5,3.2 l0.3,2.5 1.7,2.2 l1.6,1.2 2.2,0.9 l2.6,0.1 2.3,-0.3 l2.1,-1.0 2.7,-1.4 m11.5,-15.9 l0.0,0.2 -0.5,0.2 l0.1,0.9 -0.3,1.8 l0.0,2.4 0.6,3.2 l0.4,3.4 -0.1,2.7 l0.4,2.3 0.0,1.0 l-0.4,0.0 -0.3,-0.5 l-0.3,-1.5 -0.3,-2.4 l0.3,-2.8 -0.5,-3.3 l0.7,-3.1 0.5,-2.6 l1.0,-1.9 1.2,-1.2 l1.6,-0.9 1.0,-0.4 l1.7,0.0 1.2,0.3 m9.2,1.5 l0.2,0.4 0.3,0.6 l0.4,1.2 0.5,2.4 l0.8,2.6 0.6,2.9 l0.6,3.2 0.2,3.0 l-0.2,1.8 0.1,0.8 l0.1,-0.1 -0.2,-0.7 l0.2,-1.8 -0.2,-2.8 l0.2,-3.0 0.2,-3.2 l0.7,-3.2 1.3,-2.4 l0.9,-2.0 1.0,-1.7 l1.6,-0.9 1.2,0.1 l1.5,0.5 1.0,0.9 m7.3,0.5 l1.3,0.2 0.7,0.4 l1.1,0.5 1.7,1.0 l2.0,1.9 1.9,1.7 l2.3,2.1 1.7,1.5 l1.8,0.8 1.6,0.3 l1.4,-0.6 1.2,-0.9 m4.1,-8.2 l0.3,0.4 -0.5,0.3 l-0.7,1.2 -1.0,1.5 l-0.7,2.4 -0.7,2.6 l-1.0,2.9 -0.6,3.2 l-1.5,3.2 -0.8,3.5 l-0.7,3.4 -0.7,3.1 l-0.7,2.9 -0.4,2.2 l-0.3,1.8 -0.3,0.9 l-0.2,0.5 0.0,-0.2 l0.2,-0.5 m18.1,-21.2 l0.3,0.6 0.4,0.0 l0.0,-0.2 0.5,-0.2 l0.0,0.0 0.4,0.1 l0.0,0.1 0.4,0.0 m23.1,-29.3 l0.0,0.0 0.0,0.0 l0.0,0.2 0.2,0.6 l-1.0,0.7 -0.4,1.5 l-1.2,1.8 -0.5,1.9 l-0.6,2.5 -1.1,2.5 l-0.7,2.8 -0.9,3.0 l0.1,3.9 -0.9,3.2 l0.7,3.2 0.6,2.2 l0.8,1.4 1.2,0.3 l0.8,-0.1 1.5,-0.8 l2.1,-1.2 1.5,-2.1 l2.2,-1.9 2.0,-2.6 l0.6,-2.2 0.5,-1.7 l1.0,-0.6 -0.2,-0.8 l0.6,0.5 -0.5,0.4 l0.8,1.8 1.3,2.9 l0.8,2.8 1.0,2.5 l2.2,2.5 1.7,1.1 l1.1,0.6 1.3,-0.2 l1.8,-0.5 2.0,-1.0 l2.0,-1.4 1.4,-1.9 l1.5,-2.2 1.2,-2.7 l1.1,-2.8 0.0,-3.2 l-0.4,-3.4 -0.7,-3.5 l-1.0,-2.8 -1.9,-2.5 l-1.2,-1.8 -0.5,-1.5 m17.3,12.1 l0.8,0.0 0.0,0.0 l-0.8,-0.1 -0.1,0.2 l-0.1,0.5 -0.2,1.0 l-0.3,1.4 -0.2,2.0 l-0.1,2.1 0.1,2.6 l-0.3,2.5 -0.6,2.3 l0.6,2.4 0.3,2.3 l0.2,1.9 0.1,1.1 l-0.1,0.1 0.1,-0.2 l0.4,-1.1 0.5,-1.9 m0.0,-32.8 l0.2,-1.0 -0.3,-0.5 l0.1,-0.4 0.0,0.0 l0.0,0.2 -0.1,0.2 l-0.1,0.3 0.3,0.4 l-0.4,0.1 0.4,0.0 l0.4,-0.1 0.8,0.3 m10.0,-0.8 l0.4,0.1 -0.1,0.5 l0.1,1.4 -0.5,2.1 l-0.1,2.5 -0.3,2.8 l0.2,3.1 -0.4,3.4 l-0.4,3.3 -0.2,3.9 l0.2,4.0 -0.2,3.8 l-0.5,3.3 -0.3,2.4 l-0.3,1.2 0.3,0.6 l-0.4,-0.4 0.2,-0.6 l0.5,-1.6 0.2,-2.4 m4.0,-17.0 l0.2,-0.6 0.0,-0.1 l-0.3,-0.4 -1.2,-0.4 l-1.5,-0.2 -1.3,0.1 l-1.3,0.2 -1.7,0.2 l-1.3,0.3 -1.7,0.1 l-1.2,0.1 -0.5,0.2 m21.3,-16.5 l0.9,-0.3 0.5,0.1 l-0.6,0.4 -0.3,1.6 l-0.1,2.3 -0.2,3.0 l-0.4,3.6 -0.5,4.0 l-0.1,4.0 -0.5,3.7 l-0.2,3.9 -0.4,3.1 l0.3,2.1 -0.4,1.2 l0.0,0.3 -0.3,-0.4 l0.6,-0.5 1.1,-1.2 l0.6,-2.0 0.9,-2.4 l1.5,-2.4 1.0,-2.6 l2.2,-2.2 1.7,-2.0 l2.0,-1.5 1.9,-1.1 l1.8,-0.5 1.9,0.2 l1.9,0.6 1.1,0.9 l1.2,1.8 1.1,2.4 l1.0,2.5 0.9,3.3 l0.3,2.5 0.2,2.2 l1.3,1.5 -0.1,0.6 l0.3,0.2 0.0,0.4 " fill="none" stroke="black" stroke-width="1" /></svg>