<?xml version="1.0" encoding="utf-8" ?>
<svg baseProfile="full" height="6631.3195362" version="1.1" width="3500.7953055" xmlns="http://www.w3.org/2000/svg" xmlns:ev="http://www.w3.org/2001/xml-events" xmlns:xlink="http://www.w3.org/1999/xlink"><defs /><rect fill="white" height="6631.3195362" width="3500.7953055" x="0" y="0" /><path d="M3386.78288356,444.751637709 m-1.80217475891,-1.69191131592 l-1.52279052734,-1.37815647125 m-3.58780479431,-2.75584125519 l-9.6158416748,-6.79690704346 m-10.9740837097,-6.87686233521 m-8.69431304932,-3.81714897156 m-4.50686721802,4.7453918457 l-11.2695526123,0.786501216888 28.534274292,5.77155303955 m-5.01089897156,-6.94282226562 l16.1566940308,8.47027740479 -0.39037194252,-10.2319755554 l-2.67544517517,0.450752067566 m2.03071403503,-3.28529815674 m-3.79449920654,1.29504299164 l11.9935882568,32.5901184082 m5.0088760376,-7.15764694214 m-12.8504821777,-9.11162872314 m-14.6071868896,-4.37889709473 m114.062841797,83.9774414062 m-3.10554542542,-3.85609741211 l5.63329162598,-0.468094921112 -2.43652992249,-4.43547973633 l1.13919754028,1.26330375671 m-0.692388772964,-0.724003839493 m-10.9336380005,-2.17013568878 m0.703444004059,-7.75251846313 m-2.55169944763,-36.9008605957 l0.747591495514,-2.13850955963 m-5.69257965088,-1.71786289215 l7.00495452881,6.46012573242 m-3.88923339844,-7.02507400513 l-3.11309661865,-0.484033870697 m-1.11513710022,-0.282585525513 l-2.78950195312,-1.42223129272 2.1173116684,-1.77410392761 l-4.75401229858,-0.568342924118 3.82741775513,7.6878578186 l1.9989107132,1.27645492554 -8.39781951904,-5.95064582825 m-1.61440734863,6.83608932495 m-1.45195446014,-6.10404815674 l-2.67680206299,-0.882412242889 1.08829450607,2.12591266632 m-8.24625778198,-8.82939224243 l-2.12731151581,3.61120834351 0.00554232373834,-2.2985748291 l-0.356096076965,-4.24139328003 1.96355628967,4.27303543091 l-6.89075164795,-4.80108833313 -3.96592063904,-1.69408397675 m0.106371247768,2.55616149902 l0.190030229092,-4.07743415833 -1.69507026672,2.90051574707 l1.00259799957,-2.92507133484 m-5.81887397766,-3.76269874573 l2.96561260223,0.482082414627 m-7.58052978516,-8.08248977661 l-0.26733481884,12.8317047119 m1.59571752548,-1.32988176346 l-8.72898178101,-5.25190162659 3.1874874115,7.80927276611 m-1.89317092896,-0.385532045364 l-3.63403930664,-1.47044649124 m-0.186647510529,-1.46707782745 m-1.81136627197,-2.25229263306 l-1.59538927078,1.0825220108 m-1.75486774445,-1.35781011581 l-3.7042098999,-3.0843460083 m-2.08528118134,-3.97104110718 l-2.11889762878,-2.62066440582 1.46432285309,-8.17542724609 l-2.57324981689,1.51556682587 -1.03308095932,-8.10032348633 l-0.703568935394,-0.777330303192 -2.81789169312,0.838523292542 l1.41827306747,-2.09513072968 m-6.16773605347,-5.38289222717 l0.311608552933,-1.47246456146 m-5.60908164978,-4.18640213013 l-2.78764152527,5.15267105103 6.41879425049,-2.45041046143 m-6.79704971313,-4.88879356384 l11.6746513367,-0.107061159611 m-3.63053703308,-1.07857093811 l-0.296687316895,0.882333564758 -2.31711235046,3.38004951477 l17.8392913818,20.4539459229 m-6.17381973267,-5.08418693542 l-2.00552330017,-3.44574203491 m-2.43837852478,-0.126281714439 l1.36337223053,0.236589050293 -1.25442771912,0.485160636902 l5.77967147827,0.496879339218 m-8.30824203491,-7.45849380493 l3.63971405029,9.55385513306 m-0.617869758606,-1.5063706398 l-3.84166183472,-2.60573596954 m-1.38942327499,0.458139324188 m-4.13143577576,-6.46718673706 l1.91298007965,-0.979072666168 -5.03724517822,-0.242709589005 l-18.3519592285,16.380279541 -510.000097656,-0.9764585495 m2.23233795166,84.760736084 m9.85744781494,-116.89284668 m-6.53905029297,-1.95596237183 l3.02998828888,-0.257693910599 m-7.90956344604,-5.37104072571 l1.43661699295,2.05276603699 m-9.17740020752,-8.0660736084 l-3.7683631897,-2.82139759064 m-3.91284217834,-3.60789222717 m-3.6161190033,-0.876096153259 l1.54126119614,6.16260070801 -3.28703536987,-4.2173248291 l-5.2157283783,2.37429256439 m4.69011001587,-5.48141784668 m-7.39391937256,-5.48929595947 l4.64589080811,17.4736907959 m-0.314583969116,-4.34611129761 l-7.69510574341,-4.96055030823 -12.3155059814,-73.7462890625 m-2.35962486267,-2.58717060089 m-10.5978179932,-9.25508728027 l0.295609760284,3.54657592773 -2.50543556213,-6.53546829224 l-1.1526184082,1.30180435181 -3.88393096924,-5.40564956665 l-0.576841783524,-0.602574157715 -3.1404548645,-3.36636276245 l1.74892883301,1.81978778839 -8.37355880737,-3.17912311554 l3.23730392456,-4.84798660278 1.59179286957,0.308054304123 l-5.80679168701,-4.00352172852 -0.660318374634,11.7920166016 l0.582369565964,-2.74093933105 -5.78587150574,-6.83641891479 l-10.0195373535,-41.6195098877 m-1.49983005524,6.45823974609 m-6.05829963684,-6.74145355225 l-0.93232755661,-3.06507301331 m-0.630911111832,-9.28415603638 l-5.32502174377,1.86157131195 -6.30609436035,0.51851234436 m6.52185211182,-1.83462581635 l-2.49078559875,-5.21425018311 4.65094909668,-0.541305160522 m-9.24449996948,-5.28804740906 l0.763614654541,1.01402463913 m-1.65862865448,-10.8361503601 l-3.00587768555,1.54941253662 -4.60826339722,3.56373939514 m0.871953964233,1.39607629776 m-6.0191619873,-5.03273010254 l4.18143463135,3.59369773865 m-7.45520324707,-5.00319328308 l-2.69845581055,3.36202392578 0.587720632553,11.9278320313 l9.79124755859,1.05524921417 m-10.4387405396,-6.88925247192 l11.9728462219,10.5849723816 m-1.9345495224,-4.82488174438 l-4.45986251831,-2.6375246048 31.0933532715,36.5247772217 m0.374414157867,4.34561157227 l-2.30283966064,-0.286649107933 m-0.268987321854,-5.0753326416 m-3.04378242493,-10.9495040894 m-5.06108322144,-14.546395874 m-18.3826919556,-99.1604064941 m7.1656539917,8.63156509399 m-4.58576011658,-7.02718505859 l-2.14384098053,3.47997245789 -0.520065498352,-1.12095565796 l-0.920505714417,2.95334091187 m-4.10875930786,-2.04938011169 l-6.17597198486,-0.310984277725 m2.92359962463,-2.4483259201 m-0.743019199371,-5.84084129333 l4.75050125122,17.8766265869 m2.03030109406,-3.30879554749 l-6.36389923096,-6.33433151245 -27.2823150635,-12.1303543091 m-141.55703125,-83.7142333984 m18.618989563,274.584228516 m-1.74665718079,2.7113368988 l-3.50552978516,-1.99478988647 m-1.89135150909,-9.29756088257 l1.47361288071,5.23196868896 m-0.620364427567,5.78284225464 l-2.0950717926,-3.4341178894 m-0.91217880249,-0.355439376831 m-4.27804222107,-2.76354866028 m-0.990512084961,3.7348487854 m1.08521652222,-1.88680286407 l-1.70779132843,-1.31345329285 m-3.50728912354,-3.99887428284 l-3.14676589966,-0.100606191158 46.4315734863,33.4866363525 m-3.16262722015,-5.00207519531 l6.55371932983,-0.622241973877 m-5.47246589661,-6.48368911743 l8.49617767334,-33.3665100098 m-0.065751683712,-1.29401826859 m-2.95317993164,-4.13267593384 m-3.89752655029,-2.77925300598 m-0.914054203033,0.151634800434 l1.58919525146,-0.600605773926 -0.352591252327,1.57737026215 l1.37379589081,5.20382003784 m-1.93373279572,-5.93586425781 l-2.17223052979,0.548015165329 -3.35225257874,-2.00014762878 m-1.04249944687,1.45985679626 l-0.141150724888,-0.773695039749 2.12524433136,-0.772312164307 l-3.25123443604,-2.1571062088 -1.74450035095,14.1411346436 m5.15572738647,-13.6575134277 m-9.328956604,-0.632404708862 l-17.0570922852,-7.10461273193 m33.4032531738,25.8205505371 m-3.2058139801,-4.75610542297 l6.72775497437,3.57198143005 m-0.290689229965,-5.48802986145 l-11.5698478699,-1.01609535217 m-162.084851074,-10.856426239 m3.1847530365,274.498291016 m0.258022332191,-7.23568572998 m-13.4572357178,-12.4079544067 l46.4478515625,8.31987075806 m-3.60730819702,-3.71849861145 l0.404390716553,7.8128364563 5.98059883118,1.01865758896 m-7.25491485596,-7.92055282593 m-4.87866630554,4.58920478821 m1.10792484283,-19.9189987183 m-4.41047706604,-2.39476203918 l-1.74147758484,3.59849700928 -2.4943687439,-4.43369865417 m-4.83243370056,-2.97088699341 l2.59531764984,1.59228172302 m-7.75240478516,-8.79171829224 l-2.32064323425,-3.67684059143 m-0.568926143646,-3.89946403503 l-2.77537460327,-4.55798683167 -2.53626899719,-3.73232192993 m-1.94511013031,-4.37113380432 l-4.03430862427,2.29505176544 4.27910804749,15.355569458 m-3.1640460968,-3.64745788574 m-9.71015777588,-6.435546875 l7.3298248291,3.9693561554 m-7.43323440552,-8.49021911621 l-3.69271621704,0.132550859451 m-1.36911888123,-1.03263206482 l0.510276079178,-2.33927936554 -1.6926153183,-2.4327249527 l-1.16834392548,1.6507856369 m-0.701683282852,-7.12567062378 l-6.37667121887,-4.19228134155 6.34740753174,16.8179473877 l-0.491661071777,-4.50383529663 -6.07120857239,-2.95118618011 l33.247253418,43.4517547607 -5.67772712708,-6.9692565918 m-7.11813430786,-4.95485610962 l-81.4967773437,-46.0746398926 m2.57602729797,-23.113923645 m2.00671157837,-117.687854004 l-0.290313267708,3.37524375916 m0.149894833565,-4.5030418396 l-3.05100708008,0.0874435424805 -5.11064224243,-9.33237762451 m2.39389972687,-1.76490688324 l-6.45705718994,-3.66017990112 -0.101449894905,-3.45938415527 m-3.84791755676,-1.16002941132 l-2.2216299057,1.27653560638 6.71043014526,5.13823509216 m-6.27885398865,-3.57777442932 l-0.40986995697,-0.926393604279 m-8.00130081177,-8.55919799805 l-0.696568727493,5.08218383789 m-2.10288238525,-4.34082984924 l-4.88039779663,-2.00058841705 4.29525909424,13.6272094727 m-3.50893440247,-7.65869827271 l-2.62237281799,-2.17583503723 -12.9612426758,1.26744279861 l111.487548828,1923.24472656 m8.79261474609,-6.14931411743 m-11.9877075195,-12.1271514893 l10.6291702271,171.660302734 m0.739658784866,-9.07611160278 m-10.8024604797,-10.5744064331 l25.9355316162,20.7986160278 m-8.12817382812,-7.66075439453 l3.5731880188,-5.04662284851 m-6.06844100952,-1.03493919373 l25.4584991455,2.9924238205 m-1.14925136566,-5.51988792419 l1.77524986267,5.50485687256 m-0.951194381714,-5.38135910034 m-7.03052978516,-2.63296661377 l14.2293426514,6.46309127808 m-2.23705501556,-4.48397674561 l-20.39921875,-15.9520080566 m14.9752944946,434.177734375 m-1.01572990417,-10.205116272 m-8.1342918396,-4.6121257782 l14.58699646,5.75295333862 m-4.967628479,-4.73955574036 l3.73598175049,9.08284835815 m3.14004802704,2.54758453369 m-10.3610015869,-7.81681518555 l5.82495956421,-1.76694164276 m-2.6719171524,-2.04564857483 m0.0668925881386,-5.63122901917 m-7.60123901367,-3.26711120605 l41.4773193359,34.0974151611 m-0.361142921448,-4.80127296448 l-3.09354896545,1.33624706268 -8.1113494873,-59.8875915527 m14.6601043701,4.85546073914 m-4.60424766541,-3.71335372925 l-0.710020017624,-1.306635952 m-7.75113754272,-3.59619026184 m5.2747833252,0.395145273209 m-1.68796730042,-5.90693855286 l3.58918800354,1.25232610703 -5.56571426392,-3.32509269714 l0.374974107742,5.72249984741 m-2.90338630676,-1.69980258942 l-6.6864364624,-2.23218898773 -3.39019241333,-4.99748306274 m-1.05199670792,8.47734451294 l-0.856613922119,-7.77767868042 -3.65741004944,-4.22035255432 l35.8662536621,26.7487731934 m-1.63830242157,-9.99309692383 l-36.1966827393,-11.9708633423 m-128.446276855,-13.2275558472 m129.635766602,-5.64141311646 m-3.43395462036,-2.89973163605 l0.771111106873,-18.5492324829 m-8.35575561523,15.1871032715 m3.98679656982,-9.8267288208 m-1.81202507019,-4.60210266113 l-8.17080841064,5.78324661255 m55.8085876465,8.40800476074 m-5.103565979,-3.77809753418 l-2.26764755249,1.6476858139 m-1.64241466522,-1.29943599701 l-2.93849906921,-0.277319383621 m1.40268602371,-2.41550922394 m-6.61709060669,4.83726348877 m-2.33389053345,-109.584118652 m-0.359288358688,6.60495223999 m-1.73554382324,-1.67797622681 l-3.39634246826,-2.32547740936 -0.118182587624,-20.2531402588 m0.711921453476,6.47864151001 m-1.03047552109,-5.37368431091 l-3.91452445984,-1.97833862305 -8.04647369385,-7.90982894897 m3.44726638794,3.0420255661 m-7.03489227295,-5.10002288818 l-7.20195465088,-5.34855232239 4.11891403198,26.760256958 l2.49125823975,-3.29603919983 -10.0922225952,-4.73832893372 l-15.8124481201,4.03041534424 m0.150215923786,-2.84422073364 m0.985022449493,-16.8391784668 l2.71128253937,0.292036151886 -4.14690589905,-2.8670627594 l1.91184921265,9.45951538086 2.59584083557,-2.93671703339 l-10.4720367432,-8.28834686279 -7.33222503662,-87.8057006836 m-8.88936233521,14.3027862549 l3.40388793945,-0.459656763077 m-7.75544128418,-8.43629455566 l4.73576889038,-14.0860641479 m-3.34062576294,-2.64693088531 l-0.753270053864,2.51767063141 -1.5646905899,6.33036003113 l0.175551366806,-0.492483377457 m-2.36672687531,-6.63667755127 l-8.8451171875,4.16309051514 m-1.0884552002,5.05522994995 m-5.95427703857,-4.95573348999 l-38.3036956787,8.65867614746 0.344260692596,-24.622354126 m-2.17627563477,-2.22716808319 l-8.49509429932,10.4135269165 m-8.22605133057,-11.0073883057 m-0.702470064163,5.69821090698 l-3.80018005371,-0.116755592823 -1.29369678497,-0.246310758591 m-2.67887516022,-9.55511932373 l-1.96731376648,2.58241233826 0.810359859467,-6.92504043579 m-5.91635932922,-1.84404239655 l-2.41056289673,7.08067779541 -0.964932823181,1.0539150238 m3.0175951004,-5.89521369934 l-6.2591053009,-1.60624637604 m-33.2365966797,-11.4538360596 m109.61763916,-6.71699676514 m-1.90813083649,-6.17047309875 l-18.8226104736,7.88532485962 m-19.8467376709,-10.4810554504 m27.4569641113,3.36632347107 m-0.831772327423,-5.45403862 l-15.2794219971,-27.4585174561 m10.2145233154,106.732263184 m0.305241084099,-0.343126869202 l-7.96541290283,-7.603125 26.0066772461,32.0409606934 m-7.04244308472,-6.25650787354 l-5.80327949524,-2.11229667664 m-2.50359611511,-13.0118560791 m-1.24617109299,8.57958374023 l1.99474372864,-6.02311401367 m-8.44825592041,-7.46463088989 l-19.065145874,-9.88938903809 m-81.0147399902,-1290.57246094 m-0.175153565407,-18.4181427002 m2.02170906067,-6.63346176147 m-6.51521987915,-1.11510372162 l2.33640270233,16.8431716919 m0.384005069733,-4.35994110107 m-9.52311630249,-7.95109710693 l6.77750244141,14.2118148804 m-2.1836233139,-8.34890594482 l-5.21206321716,-4.1497215271 -1.36291427612,-10.9480911255 m-2.59585094452,15.876550293 l-5.12142372131,-4.65791015625 -13.0886993408,0.4155128479 m16.9905319214,-15.4625839233 m-2.59686508179,-9.09442214966 l-7.45188217163,1.78843822479 m4.73152503967,8.09407730103 m0.826984596252,-1.78139419556 l-3.37696418762,3.19937591553 20.2038116455,154.055358887 m59.4965454102,7.61853866577 m-8.19354248047,-9.21942443848 l3.87003288269,-1.74322280884 m-7.02951202393,-4.53103713989 l-5.6211315155,-4.35635032654 m10.6465309143,1.70466785431 m-2.15147609711,-4.3296295166 l57.7495056152,21.1443405151 m0.286281633377,-0.680889701843 l2.29901008606,1.42990484238 m4.00205535889,-0.249903774261 m-4.48390922546,-5.24570007324 l-12.5942337036,5.38187980652 m-14.0043884277,39.6853179932 m11.6375213623,-0.107801926136 m-12.6799552917,-8.25854873657 l-17.9835266113,-22.0251403809 m36.50362854,290.100366211 m0.250161170959,-4.20140075684 l-8.61796646118,-4.55872421265 -3.44868507385,-8.06744384766 m-1.33877220154,-24.1793136597 m89.4083312988,120.201000977 m-3.18071537018,-4.99173049927 l-0.519139194489,-0.9303647995 m-5.51750411987,-5.00101318359 m0.810324954987,5.17699890137 m-2.36227264404,-1.25409231186 m-6.23009300232,-3.37990951538 m-17.7322753906,5.34946365356 m101.676171875,-4.06920967102 m-1.96679134369,-6.40463638306 l9.36506729126,32.438583374 m-4.28937911987,-4.81163253784 m-7.61378250122,-7.11979522705 m54.094921875,312.300317383 m3.22145423889,0.233490419388 l-13.8420455933,-10.5938720703 70.100390625,29.1761352539 m-8.36706924438,-2.86876220703 l13.547227478,32.5906402588 m3.16877593994,-11.4127853394 m-8.79188232422,-7.56068267822 l31.1652526855,19.7566650391 m-0.154561054707,-2.87033195496 m-1.5480052948,-0.329895758629 m5.12953414917,12.3646560669 m-0.486371564865,4.90140571594 m-7.7512878418,-6.37231750488 m3.88344917297,3.58236541748 m-6.90342025757,-6.19567184448 l16.5489959717,-0.244354510307 m-0.883471679687,-4.98792648315 l-0.527893257141,5.75112876892 m10.7803352356,82.1080627441 m7.99030761719,-8.59862365723 m-12.4981445313,-6.1604133606 l-136.568115234,-17.4766906738 m-96.1711303711,-22.3693710327 m-208.315161133,-63.6256103516 m20.0233901978,14.5580810547 m-0.361327910423,2.15419120789 l6.2213306427,-1.17865638733 m-8.38215637207,-3.23652687073 l33.5844055176,6.75440826416 m-7.67658233643,-2.32335128784 l3.77279129028,7.36441574097 m-5.73583221436,-6.48870697021 m0.483962249756,-5.7151714325 m-1.3549943924,3.36000976563 m0.932716941833,1.50581693649 m-4.20920219421,-2.82837600708 l21.4783447266,9.12812423706 m-2.95172042847,-5.33093223572 m-11.7796447754,-5.25620498657 m1.55900964737,-41.3163269043 m1.88343639374,-2.3510887146 l1.62068805695,-2.20202217102 -1.91315288544,2.80832252502 l22.8940216064,1.4970164299 -6.34859542847,0.443195819855 l2.04390029907,11.832472229 m4.08608703613,1.15197601318 m-10.3471038818,-5.71721572876 l13.9339996338,29.26065979 m5.35904846191,9.66974639893 m-5.99309692383,-9.51179428101 l0.906957530975,-4.3084564209 m-0.565862083435,-0.0733968257904 m0.341720867157,-0.90107755661 m-3.31512527466,-3.42126159668 l5.34815216064,33.933392334 m6.97858123779,2.21864013672 m-18.5061126709,-14.0121780396 l14.1397140503,1.45447721481 m-5.48286781311,-8.03276443481 l-21.5995498657,-23.5154632568 m5.92730636597,-0.545003843307 m-8.63779449463,-5.76680717468 l-2.97896175385,-1.67054252625 m-0.854367542267,-5.5764541626 l3.40633544922,6.10710754395 m-0.676012945175,-1.65358123779 l-3.09448204041,-3.37930450439 m-4.22887458801,1.07165822983 l1.60082397461,1.33640708923 m-0.538305568695,-5.72020683289 l-2.74591846466,-1.29674863815 m-2.72262649536,-0.759989643097 l-3.36118774414,1.63452796936 0.0539356529713,1.91253814697 m-6.24358711243,-6.6226890564 l0.167268419266,0.0316444665194 m-1.48498573303,-7.77533035278 l-4.0784072876,0.188146960735 2.12970466614,-0.791137886047 l0.757721042633,1.0252538681 -3.21603469849,-3.35751152039 l4.25726699829,-0.0915125072002 -2.57779312134,-2.46012783051 l-1.6980758667,3.43390007019 m4.41264305115,1.74846668243 l-8.33677597046,-5.96144485474 m-1.40230045319,11.6094436646 m2.27552833557,-5.81273651123 l-4.7253944397,-6.51683959961 -20.7357757568,-19.3563858032 m-7.69834136963,-192.420996094 m-3.60293426514,-3.10377521515 m-7.24307327271,-6.67657089233 l0.786098241806,3.90589904785 -4.52106170654,-7.08578186035 l0.528023004532,-7.92830200195 0.445685434341,5.28765945435 l-7.64720458984,-6.23969421387 -1.35382261276,-1.42971525192 l-9.28301849365,-0.751887512207 4.0782081604,-6.73899536133 m-2.22393722534,-0.692006158829 l-4.26638412476,3.78655853271 5.23341789246,-3.98310241699 m-6.55043334961,-3.48061599731 l3.13873748779,14.070954895 -0.575389480591,-3.73348045349 l-6.07890167236,-2.10785064697 -7.09654312134,-18.051473999 m-2.33340187073,-2.57493953705 m-7.02936401367,0.749094486237 l-1.06845760345,1.31812953949 m-4.93426361084,-3.84312515259 l-2.07416801453,-3.41238708496 0.0467650562525,3.84830436707 l-4.81247024536,-2.4470790863 0.536372423172,-1.2433172226 m-5.69646492004,-3.98340530396 l-1.09146327972,4.36791305542 -2.85069580078,0.789468955994 l-0.553252649307,1.81056041718 m-4.63505706787,-4.70996017456 l-1.62122631073,-0.498575782776 m-4.88697776794,-2.40791873932 l-1.68680648804,-0.733550548553 1.84449081421,1.22398357391 l-4.30349884033,-3.07774333954 -0.127709615231,3.4181930542 l0.478872108459,-1.67052497864 -4.3296913147,-3.05894260406 l1.84997444153,0.278878235817 m-5.20388259888,-4.27621421814 l0.0474474847317,-0.253429865837 m-5.27740287781,-4.76219329834 l-6.39843788147,-1.46224575043 4.02437362671,-9.71266098022 m-1.14645853043,-1.44821310043 l-1.12113494873,2.39756679535 -0.380138301849,2.74239253998 l0.743297767639,7.11418304443 m-3.97503585815,-5.83682174683 l-4.49774131775,-4.79872055054 -1.01512336731,3.29975395203 m-1.4918595314,-6.1967830658 l-5.76955986023,-2.95228786469 18.8110336304,20.9983520508 m-1.75887336731,-6.41109008789 l-0.625548791885,0.753033399582 m-3.70395393372,-6.27654876709 l-0.969922542572,-3.77776679993 m-3.31824035645,-2.62484550476 l1.42674827576,-2.08331871033 -1.53652429581,0.18942360878 l-2.13258514404,4.32775497437 -2.02092590332,-25.0445770264 m1.34956512451,-17.4177246094 m1.61923484802,1.46536865234 m-6.79512481689,-4.42140197754 l-3.6594871521,-7.69081878662 0.877646255493,4.20952796936 m-5.26261672974,-9.66097259521 l-3.3846118927,-1.38118438721 m-5.04146194458,-6.35732727051 l-1.8683511734,-0.101185178757 -0.966167640686,-0.0668046414852 l-1.18294563293,-1.99713668823 0.195674777031,5.29762954712 l-0.826420593262,-0.156612741947 -3.2746761322,-1.75170783997 l0.718301296234,-0.455172109604 m-6.25543670654,-6.88451690674 l1.164316082,0.404229164124 -2.30562610626,-2.77544364929 l0.856128120422,11.6849502563 m0.842322540283,0.733175992966 l-6.02354049683,-4.46417312622 -24.5609039307,9.98636627197 m66.8906860352,4991.13125 m-2.00429382324,-5.75871734619 m-7.03823547363,-8.28505859375 l-48.1253295898,0.19205930233 m-656.078857422,-543.096972656 m18.7389968872,351.482446289 m2.49476451874,-9.01462860107 l-11.0444648743,-7.02467041016 20.0131530762,66.2492553711 m-1.80776138306,3.77063827515 l3.18533592224,-7.11177215576 m-4.75843429565,-9.70691604614 m22.2553787231,98.7345947266 m-3.62486114502,-2.65994644165 m-11.9689727783,-7.37643661499 l15.0691192627,29.0478607178 m0.849326133728,-7.31915435791 m-7.65675048828,-4.69123878479 m0.865311336517,18.0157836914 m0.0809579432011,-46.8570129395 m1.12986164093,-3.8203125 m-7.43802185059,-4.92995300293 l3.57062301636,2.7968082428 m-3.03627986908,-5.85855903625 l-1.81354694366,1.15620117188 m1.39896717072,0.203671193123 m-6.67643966675,-5.36911201477 l1.12957859039,4.45077514648 m-5.07954597473,-4.73590698242 l-6.78178253174,-0.472277116776 5.81513290405,24.9061813354 m5.40629119873,4.61359977722 l-8.60486450195,-6.15851402283 3.82003173828,6.59376373291 l1.98312568665,3.67169837952 -0.465934801102,-1.76205310822 l-3.33001174927,-1.86766166687 -38.9521606445,-172.555371094 m18.8262039185,8.48370819092 l-6.02903556824,-3.8565536499 7.89648132324,-5.68310127258 m4.23221054077,-22.6579879761 l2.8513967514,4.11856269836 m-3.43778915405,-1.63153457642 l3.13979454041,-4.19427566528 m3.67023239136,-4.26279144287 l-1.96509037018,-1.06552619934 4.58086357117,8.84098358154 m2.58948478699,1.42248058319 l-7.55684738159,-3.28102874756 0.0422428578138,-19.3981796265 m-0.53142952919,-7.86309356689 l11.8328170776,154.926928711 m4.49923629761,2.56972961426 m-15.8616149902,-14.0931304932 l3.50248413086,17.2701446533 m3.16578292847,0.527578926086 l-9.71564865112,-5.82060585022 16.3814025879,14.6379364014 m-6.1001083374,-5.89753341675 l-0.0199259147048,2.12460975647 m1.77018489838,-8.21834259033 m-5.97610931396,-3.98242607117 m-0.594479560852,-28.8875518799 m-1.38812408447,6.84708099365 m0.37491607666,-0.453360414505 m-8.63582687378,-7.05545120239 l-1.66248283386,-12.9637893677 m-3.20996055603,-8.93821258545 l-1.59842319489,6.11938056946 m-4.22871017456,-1.18620567322 l-5.21357421875,4.17899131775 m1.43964481354,0.970058059692 m-7.6135055542,-6.79791107178 l-13.5560852051,14.57734375 1.6323387146,-47.6462432861 m-0.335233235359,-5.47732887268 l2.51400661469,-5.77458572388 3.84959259033,-1.80711288452 l-8.472290802,-3.88670120239 -2.11436290741,0.263727521896 l2.50863265991,2.78916511536 -2.13976955414,-4.0075630188 l10.3036277771,25.0584197998 1.26230707169,-3.5167301178 l-5.68846435547,-4.13294792175 1.93348674774,-2.84276313782 m-3.71231307983,0.161100912094 l0.466806840897,14.1501800537 5.19657745361,-18.5435577393 m-8.8772315979,2.44110794067 l22.9757293701,30.1620849609 m-2.41927070618,1.82078094482 l-1.829621315,0.556791877747 m-2.07673187256,-1.2691236496 l-2.18986091614,0.132303380966 1.92934532166,2.61819419861 m-2.09111995697,-3.50286750793 l-1.99857540131,-1.28359565735 1.26077470779,14.1236755371 m3.15049057007,23.1262496948 m-3.74881439209,0.726593065262 m-5.25709533691,-5.02409934998 l6.46011047363,5.016355896 m-0.0738447546959,-5.80631828308 m-4.28301048279,-4.86884841919 m-0.100307655334,-7.97434921265 m-8.45374450684,-4.83145446777 m3.90793457031,4.00127105713 m-2.3830165863,-3.02296733856 l0.956791877747,4.07337226868 m0.547414875031,-3.50284156799 l-5.20020713806,-4.6853515625 -2.73753204346,0.290545344353 m-1.54086761475,-2.1551027298 m-5.97408866882,-2.36046218872 l14.2122177124,-0.235266160965 m-3.74017028809,-4.71191177368 l-17.0322738647,-6.39838066101 m-54.6794189453,-28.2931091309 m10.848740387,181.495593262 m-0.932322883606,5.53126106262 l-0.421804428101,-2.0577709198 m-2.83775978088,-3.66196365356 l0.818551826477,-4.14584503174 m-1.83225135803,-1.96271820068 m-2.17288627625,-0.74600148201 m0.823373699188,-4.33451156616 l-0.489986228943,2.41754817963 2.01810836792,3.47476348877 l-0.425321626663,-0.0151108369231 1.52297925949,-4.06999053955 l-6.14192771912,0.114300167561 m5.11971817017,5.18583145142 m-4.74287834167,-2.96112270355 m-1.61711425781,-1.5803440094 m-0.592499256134,-1.50323467255 l-1.25404729843,-0.0573618710041 -0.0686578214169,-1.1532743454 m0.567689657211,-7.92836074829 l-4.82942733765,-1.05629577637 20.3393218994,7.14883575439 m-4.09219436646,-4.3848690033 l-1.56043577194,-2.16419143677 m-0.277086758614,-2.13229293823 l-3.2465423584,-0.244244551659 -11.5179908752,0.644694519043 m-27.8493469238,-50.6451385498 m-3.38557662964,-3.24876708984 l-1.82101020813,9.68234863281 -3.1868560791,2.58806419373 l18.4436935425,-1.32402114868 m-4.41865005493,-3.33781890869 l-15.4495864868,8.1736328125 m55.907989502,-9.94775466919 m-6.15395698547,-5.08890609741 l17.0933105469,13.8544189453 m5.5543258667,-8.39982681274 l-5.0658000946,-16.3901519775 -8.71296005249,-109.381762695 m-29.0833984375,-11.7690719604 m-25.7834655762,-404.501928711 m1.746783638,18.4698638916 m-1.36164226532,-4.96581497192 l-4.02242469788,0.676757144928 m-0.0868578195572,0.0687708556652 m-6.64025039673,-4.90110092163 l6.80322418213,12.9965286255 m-6.70607833862,-4.23173446655 l-4.48612670898,5.49778709412 m-2.44519615173,-14.0124221802 m-6.34974479675,-0.210181427002 l-38.4136474609,10.1924629211 -1.9746471405,1.92150325775 m-1.7766292572,-1.46435050964 l-3.23471832275,1.28921203613 102.226531982,39.9561096191 m-5.09434204102,-4.26775131226 m-1.58304691315,-7.06913070679 m-18.6014678955,-4.1825138092 m2.00174808502,-72.0724365234 m0.864065933228,6.29204940796 l-3.05144424438,-3.40576400757 -1.61443099976,1.91073379517 m1.93964881897,-4.79622077942 l-2.66400699615,-3.7894569397 -8.92926177979,6.98625488281 m6.83955535889,-9.99552001953 m-9.29504089355,-1.64753131866 l23.4806640625,48.6971557617 m5.92360992432,3.29297790527 m-12.3609855652,-6.83023529053 l9.5129196167,-4.4615978241 m-6.71324462891,-0.3297727108 l39.9901702881,18.4218780518 m-8.9563911438,-4.98870773315 m0.531822156906,29.376071167 m4.31908187866,-1.65426998138 l-8.94647979736,-8.84131698608 7.37753982544,60.5022705078 m5.06838989258,-0.752688837051 m-12.8775619507,-10.4738075256 l9.34156417847,-1.32241716385 m0.166108620167,-15.2683334351 l9.75673065186,-17.596496582 m8.12714080811,23.0269256592 m2.58770065308,0.582727146149 m-8.09437179565,-9.28568878174 l-7.1990020752,-131.967480469 m2.71957931519,7.06918411255 m-2.2066400528,-1.20655260086 m-5.99133262634,-4.44578704834 m2.29705963135,6.83573608398 l1.42933216095,2.64140739441 m-4.26548843384,-7.21009292603 l-9.49605102539,-1.80829105377 -5.86137733459,-82.3489990234 m2.76722812653,12.6355018616 m-3.91006851196,-5.74112739563 l-0.984343242645,-2.37089176178 m-3.73620948792,-4.63007316589 l-4.0153755188,3.98407402039 m1.49907684326,1.84059200287 m-5.82664413452,-6.01153907776 l18.039704895,23.7726531982 m-5.47626647949,-2.67694664001 l-3.44625167847,2.114270401 m-1.2294002533,4.41896591187 m-0.0176336601377,-4.45631599426 l-0.781580734253,2.49996376038 -0.771832752228,-0.454389047623 m-3.53611564636,-6.57696075439 l-0.464394617081,5.66520500183 m-4.79090461731,-8.5401473999 l-3.34797439575,2.29761791229 m0.562856912613,-6.51481628418 m-4.74573097229,-0.303399085999 l-0.428101539612,1.62963447571 m0.819705295563,-8.17808990479 l-2.46162128448,-0.573143911362 m-1.47140016556,-0.218982338905 l0.724749088287,-3.73220787048 3.04049072266,1.62694950104 l-2.98549575806,-0.119495332241 -8.51915588379,4.30046272278 m37.0790588379,2.48684959412 m-7.86391906738,-5.81580314636 m-0.0946129262447,-7.57069244385 m-0.456997394562,-40.6536376953 m-2.30825424194,-68.2294921875 m11.2249206543,37.6080749512 m-3.49959220886,-2.84986076355 l-3.38533096313,-2.28277359009 m-3.92527503967,-1.41764431 m-3.21204223633,-2.26794281006 l4.98578186035,-1.78202075958 -5.23789024353,0.302244853973 l6.9961479187,40.7520751953 m-79.7693847656,-0.194407224655 l-1.41870059967,13.2113204956 m-0.146278333664,6.21167755127 m-4.39430923462,-10.2418319702 l-8.87788848877,6.86018981934 m1.56993122101,-13.4519866943 m-7.03301925659,-4.94125404358 l37.2523834229,43.2076385498 m0.37627620697,-1.77825374603 l-4.48581314087,-2.56583137512 23.9981658936,18.6107879639 m-6.85156021118,-5.03316078186 l-0.392955255508,-3.55115852356 m-7.86125869751,-5.19504852295 l-3.35197601318,-49.1870391846 m-2.85414505005,2.44127540588 m2.36330699921,-10.6609115601 l-2.29127597809,1.62784252167 2.28262748718,18.9271209717 m29.2734100342,1.48688983917 m-10.7882476807,-8.42520751953 l-8.43700027466,-4.18470420837 m-19.0417022705,-13.0945037842 m2.93781433105,2.62335739136 m-3.87922401428,-1.55104408264 l3.55898551941,5.58544197083 m-2.5880317688,-5.15051803589 l-0.830884075165,0.33047542572 m-3.17336807251,-2.94713363647 l-4.85780792236,-2.35679626465 6.9503944397,-11.1244766235 m-5.23679504395,-8.97596130371 l4.86461601257,24.1296264648 m4.88172187805,3.90647544861 l-8.89405517578,-6.63672714233 21.1511001587,-5.54075469971 m-2.06919078827,-3.80684700012 l-1.37543859482,14.7605911255 m8.799193573,-4.62493362427 m-7.16333618164,-9.10158843994 m8.6155670166,17.3461685181 m0.152752172947,-5.38752937317 l-6.62950973511,-1.03412742615 -36.3760681152,-110.649121094 m-1.63299636841,-21.4344085693 m-34.5807128906,-19.128805542 m-142.922021484,-47.6616363525 m-39.4777557373,-76.8108581543 m0.105200374126,-12.5436752319 m-4.06471672058,-3.51586837769 m-8.2392539978,0.797639083862 l-6.21787948608,4.39728889465 m-2.89439353943,6.60291061401 l0.699782562256,0.623160886765 m-7.36585998535,-9.54975738525 l-3.23136749268,3.61909408569 0.318976998329,0.616440057755 l2.34879722595,-1.93408584595 -2.43531990051,8.06607131958 l-2.24724369049,-0.728141212463 m-2.5167930603,-8.04524993896 l2.04775886536,6.85074234009 -1.92990570068,-4.8479019165 l-2.57622947693,1.95314750671 m-2.62602119446,-12.3169525146 m-1.092146492,-6.56810150146 l-2.38806838989,7.33846740723 -2.87499961853,-2.31807327271 l-1.21986064911,-1.90138969421 m0.994052314758,-9.77115020752 l-4.58774375916,1.7377494812 7.11902694702,27.7189605713 m10.1154266357,8.98520812988 l-9.19361572266,-6.64203567505 4.1260181427,-5.55260391235 m-1.50235271454,5.01521224976 l-2.03167266846,17.1629943848 15.6047027588,21.4241363525 m-7.76372146606,-7.75358276367 l-4.73606300354,-2.05777835846 -38.9631958008,-55.0228820801 m-26.3076599121,-208.166357422 m3.03716430664,7.64235992432 m-3.50830116272,-4.27945251465 l-1.53936758041,4.98373336792 m-0.537358951569,-2.24840354919 l-1.65231952667,-2.73369827271 4.89151916504,12.1418624878 m-1.87294311523,-4.89281616211 l-6.95717315674,-0.743564367294 25.5226669312,50.5297790527 m5.95164871216,3.74381790161 l-8.98282318115,-6.96411514282 3.69268379211,8.99414367676 m-5.45536346436,-5.53979797363 m-8.4772567749,1.00155353546 m-15.3991882324,-308.112329102 m10.94112854,-14.98931427 l1.35204124451,-26.3992370605 -132.237915039,-63.5698059082 m17.9393386841,188.722106934 m-2.73416976929,2.38274841309 l-4.70945510864,1.13549938202 m2.3501411438,0.451105976105 m-6.39296340942,-2.40717029572 l-3.83194885254,-15.8963928223 m-63.2522338867,-24.5216430664 m4.863463974,-12.063482666 m5.71947784424,-36.5872802734 l-2.05641517639,-3.53995666504 m1.63535003662,-7.96338272095 m3.43778877258,-2.0400478363 l-3.86098327637,-3.6980014801 -60.0782775879,3.46640892029 l1.6346118927,-15.3306488037 m4.88710174561,24.2467010498 m2.04368000031,9.117943573 m-8.29876098633,-9.60065612793 l-7.95031661987,-5.35229797363 m8.2212310791,98.6768249512 m5.40260696411,1.67118186951 l-8.40903396606,-7.07263183594 5.18203048706,35.2339508057 m-0.555799436569,-6.29062576294 l-12.8573547363,-8.34002532959 m17.9100784302,27.5907684326 m1.0158115387,5.92244682312 l-3.90059356689,-3.27914390564 m-2.40108146667,-5.67031860352 l-16.6919830322,2.07775611877 m-1.94132671356,233.030957031 m0.13437025547,24.4133209229 m1.54459753036,-0.580399894714 m-11.7785484314,-13.7772827148 l-20.9637481689,-139.198291016 m4.19980545044,14.0590194702 m-3.99961547852,0.329213905334 l-0.0816957116127,-3.28030815125 m-7.77121658325,-2.34156970978 l2.21864624023,1.04448881149 m-5.65629272461,-5.80421524048 l-4.02658882141,-2.69830665588 -1.95908622742,-4.26503715515 m-2.21114177704,0.2051684618 l-1.6238866806,2.32947807312 0.255834674835,1.89582958221 l-0.332290792465,0.847005748749 -2.13455619812,0.549403238297 l-2.48360862732,3.33809356689 m2.46993255615,2.03566970825 m-3.39357833862,-8.95825881958 l6.20077590942,5.52795829773 m-4.97646408081,-7.28600463867 l-0.381856822968,2.8226184845 4.32398910522,-3.73672103882 l-6.07978591919,0.365586566925 m2.52686519623,-1.35088243484 m-2.44274139404,-2.07124633789 l2.46974449158,3.30572547913 -0.076451420784,-2.98780899048 l-2.89592437744,0.16100051403 5.76853179932,5.31598472595 m3.02720432281,-4.27409553528 m-7.44214706421,-2.46805782318 l10.2022354126,-0.176876688004 m-4.18213310242,-6.60194625854 l8.45366821289,41.9892242432 m4.70698547363,-1.51555347443 m-9.07988815308,-7.86232452393 m-2.78198547363,-69.7561401367 m3.35100784302,3.6037021637 m-5.83927993774,-3.12031288147 l1.23780450821,4.03035812378 m0.577991104126,-2.94821071625 l-6.34219398499,-2.99807758331 -2.98216552734,-8.094972229 m-4.80569152832,-0.358622694016 l1.26706266403,-7.5617477417 -1.13870096207,3.53131828308 l-1.62663116455,-1.51052455902 1.57731971741,-0.483453464508 l-4.15977020264,-0.171659612656 -0.373598790169,10.2575469971 m1.66704311371,-1.40256576538 l-8.0459274292,-6.70770111084 -2.42699737549,-11.2731239319 m-1.73314266205,2.1524477005 l-3.72497787476,3.29468193054 19.6591552734,0.735106897354 m-1.29066705704,-2.72830848694 l-10.4274459839,1.34372701645 m57.1389221191,-8.94521408081 m-2.86781311035,-15.032270813 m17.0692108154,40.2838165283 m0.452673339844,0.16376543045 l-3.21180801392,-5.2867855072 -15.2968383789,13.3718704224 m5.77350997925,-0.223243379593 m-10.0732330322,-6.17169761658 l42.7315643311,22.3446273804 m-3.67223434448,-0.0182193681598 l-1.60659713745,-35.6972229004 m42.4340148926,56.5528930664 m-1.06523532867,-3.02333717346 l-0.0680048704147,0.466633892059 m0.154649662971,-1.21450576782 l-2.63801040649,-0.777575683594 m-2.05589179993,5.14966506958 m-0.0938244581223,1.93078861237 m-4.15022583008,-4.25756263733 l0.651418495178,2.25076942444 m-2.18313503265,-2.30488739014 l-5.47262115479,0.727707624435 m4.49746551514,-17.5106231689 m-10.7756736755,4.38808250427 m5.16815261841,-23.0548721313 m5.30048522949,-6.00072898865 l1.76940250397,3.21203536987 -3.56922225952,-1.89313106537 l-0.28388235569,3.87665367126 m0.085491746664,0.0153064221144 m-6.05714607239,-4.5853767395 l-2.01250534058,-13.5200500488 -6.76594467163,-6.50856246948 l4.91009140015,5.7953956604 m-1.25297393799,-8.64827346802 l-5.76220741272,3.6003326416 4.30200500488,-3.07578582764 m1.5766834259,-3.7798286438 l-2.68205738068,0.219751858711 8.53449859619,3.274193573 m2.7198551178,-5.45471191406 l-7.72574310303,-5.8238986969 5.36451148987,15.5288894653 m4.50831565857,-3.92504844666 l-6.58229980469,-3.79893989563 5.12148628235,27.2686828613 m-2.9215839386,-3.9958152771 m-10.0775230408,-6.40970001221 l-17.8290237427,-11.7505325317 m-529.782177734,-150.29597168 m9.81052017212,224.295141602 m-1.53148469925,-8.43854141235 l-7.35636825562,-3.89672698975 55.6631225586,45.9437561035 m-2.91545639038,-5.70573616028 m-3.03540439606,3.25001068115 m-1.88005332947,-5.39013748169 m-3.56305656433,-2.35526752472 m-1.33231220245,-2.90360870361 m4.33734855652,4.28934440613 m-1.94031829834,-7.33120193481 l4.71668319702,-8.11093521118 m-2.50881233215,-5.2828086853 l-3.75419540405,-10.7721405029 m1.10444355011,-12.0628189087 m-1.13290777206,0.516008901596 l-2.77641983032,-0.569298791885 0.899087142944,-7.19604263306 l5.28719482422,4.456432724 -8.74623565674,-5.42605514526 l0.0848668575287,-1.58485565186 m-5.0981262207,-4.59446716309 l-1.51110477448,1.77979202271 m-1.26639413834,-8.84983444214 l-4.247215271,-2.79398326874 -1.71512870789,6.17595672607 m2.25095062256,-6.11037750244 l-9.19925231934,-6.58124771118 3.21151809692,0.897123432159 m-6.70704040527,-7.38453598022 l7.15625610352,6.02739295959 m-6.13941917419,-8.98290557861 l-5.69043045044,-3.20929031372 m-1.60648899078,0.429482793808 l-1.12648162842,-0.936879825592 -1.52162942886,1.7160533905 " fill="none" stroke="black" stroke-width="1" /></svg>